<svg width="24" height="24" viewBox="0 0 24 24" fill="none" xmlns="http://www.w3.org/2000/svg">
<g id="duo icons/arrow">
<path id="Vector" opacity="0.3" d="M18.8984 10H9.35156C8.74319 10 8.25 10.6716 8.25 11.5C8.25 12.3284 8.74319 13 9.35156 13H18.8984C19.5068 13 20 12.3284 20 11.5C20 10.6716 19.5068 10 18.8984 10Z" fill="white"/>
<path id="Vector_2" d="M6.10316 11.3267L8.21253 9.40914C8.7775 8.89559 8.81626 7.96353 8.29622 7.39624C7.82798 6.88545 7.07591 6.86133 6.58098 7.34132L3.06587 10.7499C2.52817 11.2713 2.52817 12.1878 3.06587 12.7092L6.58098 16.1178C7.07591 16.5977 7.82798 16.5736 8.29622 16.0628C8.81626 15.4955 8.77751 14.5635 8.21253 14.0499L6.10316 12.1323C5.87258 11.9227 5.87258 11.5363 6.10316 11.3267Z" fill="white"/>
</g>
</svg>
