<svg width="25" height="24" viewBox="0 0 25 24" fill="none" xmlns="http://www.w3.org/2000/svg">
<g id="duo icons/bell">
<path id="Vector" d="M12.1876 22C13.8445 22 15.1876 20.6569 15.1876 19H9.18762C9.18762 20.6569 10.5308 22 12.1876 22Z" fill="white"/>
<path id="Vector_2" opacity="0.3" d="M3.12964 15.7097C4.67763 14.695 5.44201 11.1944 5.81945 7.98483C6.20646 4.6938 8.87391 2 12.1876 2C15.5013 2 18.1688 4.6938 18.5558 7.98483C18.9332 11.1944 19.6976 14.695 21.2456 15.7097C21.7075 16.0124 22.1876 16.4477 22.1876 17C22.1876 17.5523 21.7399 18 21.1876 18H3.18762C2.63534 18 2.18762 17.5523 2.18762 17C2.18762 16.4477 2.66775 16.0124 3.12964 15.7097Z" fill="white"/>
</g>
</svg>
