<svg width="388" height="232" viewBox="0 0 388 232" fill="none" xmlns="http://www.w3.org/2000/svg">
<rect width="388" height="231.268" rx="20" fill="#FBFBFB"/>
<rect width="388" height="231.268" rx="20" fill="#FBFBFB"/>
<g clip-path="url(#clip0_658_2876)">
<path d="M175.81 49.1863C174.967 48.6251 174.702 48.0514 175.228 47.8145C176.409 47.2844 175.559 46.7887 175.245 46.505C173.852 45.2361 174.547 43.6211 174.342 42.1682C174.282 41.7504 174.729 41.5758 175.172 41.6444C175.999 41.7722 176.737 42.0403 177.322 42.6608C181.583 47.1784 183.76 52.3508 182.933 58.4679C182.851 59.0852 183.155 59.5622 183.38 60.0829C184.955 63.7369 187.204 67.0605 189.09 70.5586C192.531 76.9438 195.647 83.4818 197.047 90.6027C197.142 91.0922 197.384 91.4664 197.632 91.8592C200.17 95.8125 201.218 100.059 200.411 104.648C200.292 105.315 200.467 105.499 201.149 105.671C203.326 106.223 205.433 106.959 207.193 108.365C210.141 110.725 210.812 113.886 209.046 117.144C207.961 119.146 206.323 120.658 204.275 121.752C203.494 122.17 203.213 122.616 203.365 123.477C204.5 129.774 204.93 136.138 205.218 142.507C205.301 144.356 206.419 145.806 206.773 147.511C207.818 152.575 210.703 157.164 211.087 162.399C211.352 166.018 211.573 169.644 211.927 173.255C212.192 175.98 212.116 178.935 213.628 181.258C215.99 184.884 218.269 188.688 222.263 191.11C223.642 191.949 224.992 192.853 226.057 194.072C226.904 195.039 227.48 196.074 226.927 197.343C226.342 198.683 225.151 199.266 223.698 199.416C220.532 199.74 217.561 198.911 214.743 197.742C212.308 196.732 209.846 196.011 207.22 195.637C204.229 195.216 203.319 193.963 203.994 191.241C204.46 189.364 204.553 187.45 204.901 185.567C205.069 184.65 205.155 183.727 205.962 183.042C206.505 182.583 206.24 181.957 206.174 181.42C205.827 178.539 204.861 175.889 202.869 173.613C201.854 172.454 200.95 171.213 199.941 170.05C196.927 166.573 195.058 162.595 194.013 158.246C193.854 157.588 193.692 156.94 193.176 156.425C190.764 154.028 188.289 151.68 186.589 148.656C185.752 154.006 183.271 158.904 182.46 164.257C182.258 153.869 180.168 143.876 175.711 134.261C173.233 138.224 170.686 142.277 167.328 145.787C167.262 145.653 167.192 145.522 167.126 145.388C168.499 143.586 169.846 141.772 171.252 139.991C171.86 139.218 172.161 138.891 170.752 138.563C166.994 137.694 163.596 136.091 160.926 133.338C161.558 132.845 161.76 133.559 162.048 133.765C164.053 135.221 166.177 136.478 168.535 137.354C172.297 138.747 172.304 138.744 174.246 135.418C174.921 134.261 175.93 133.176 175.417 131.704C175.136 130.897 175.063 130.058 175.122 129.251C175.298 126.884 174.983 124.717 173.21 122.85C172.74 122.351 172.469 121.915 171.668 121.724C170.646 121.484 169.369 121.26 169.207 119.882C169.756 120.203 170.302 120.527 170.855 120.845C171.281 121.091 171.821 121.378 172.231 121.141C172.677 120.883 172.194 120.399 172.168 120.01C171.824 114.5 173.329 109.659 177.822 105.874C178.259 106.372 177.686 106.594 177.458 106.825C174.606 109.736 173.111 113.197 172.684 117.104C172.433 119.395 172.879 121.519 174.385 123.601C174.649 122.51 174.13 121.478 175.169 120.842C175.38 121.868 174.666 122.937 175.473 124.144C176.002 122.41 177.203 121.247 178.467 120.069C177.104 119.695 176.313 120.932 175.149 120.858C176.039 119.504 177.432 119.433 178.881 119.601C179.946 119.726 181.048 119.508 181.888 119.118C182.52 118.825 181.868 117.712 181.878 116.963C181.918 114.198 182.272 111.542 184.779 109.643C185.163 109.983 184.759 110.185 184.594 110.382C182.894 112.387 182.242 114.703 182.493 117.204C182.708 119.345 182.834 121.531 185.034 122.99C188.541 125.316 192.336 125.288 196.223 124.346C199.323 123.592 202.509 123.04 203.637 119.367C204.394 116.91 205.291 114.61 204.676 111.978C204.464 111.071 203.799 110.282 203.928 109.303C204.656 109.447 204.765 110.064 204.924 110.569C205.893 113.665 205.685 116.664 204.097 119.57C203.776 120.156 203.187 120.714 203.405 121.531C207.901 119.218 210.151 115.501 209.205 112.041C208.487 109.415 204.609 106.653 201.622 106.634C201.741 106.912 201.86 107.186 201.983 107.461C201.192 107.701 201.017 107.024 200.752 106.631C200.454 106.192 200.13 105.945 199.591 105.927C194.638 105.736 189.897 106.31 185.788 109.253C185.507 109.453 185.315 109.989 184.776 109.646C185.58 108.165 187.327 107.782 188.574 106.678C187.532 106.522 186.516 106.559 185.501 106.516C182.761 106.4 182.387 106.033 182.344 103.513C181.279 103.541 180.594 104.221 179.78 104.726C179.135 105.128 178.861 106.148 177.789 105.892C177.961 105.615 178.13 105.34 178.388 104.923C175.314 106.472 172.198 107.666 169.769 109.936C169.045 109.25 169.948 109.047 170.236 108.795C171.364 107.807 172.697 107.077 174.044 106.382C174.183 106.251 174.318 106.12 174.457 105.989C174.193 105.849 173.951 105.908 173.726 106.07C169.167 107.383 166.425 110.479 164.685 114.451C163.355 117.484 162.885 120.801 161.27 123.757C160.599 124.989 160.261 126.389 159.537 127.583C158.395 129.466 158.749 130.944 160.417 132.328C160.645 132.518 161.472 132.693 160.926 133.329C159.745 132.833 159.256 131.67 158.293 130.828C158.167 131.087 158.065 131.262 157.992 131.446C156.189 136.116 154.928 140.927 153.744 145.759C153.651 146.14 153.741 146.539 153.277 146.847C150.015 149.042 148.474 152.269 147.438 155.761C147.313 156.188 147.124 156.503 146.83 156.815C144.07 159.761 142.072 163.119 140.626 166.795C138.79 171.459 138.003 176.382 136.587 181.149C136.226 182.359 135.409 183.631 136.819 184.756C134.02 184.073 133.021 184.382 132.227 186.256C133.431 186.103 134.648 185.844 135.499 186.926C134.926 187.369 134.549 186.749 134.066 186.692C132.859 186.555 131.767 186.596 131.492 188.064C133.798 188.142 134.225 188.317 134.834 189.424C134.152 189.533 133.805 188.931 133.236 188.756C131.919 188.354 131.026 188.657 130.434 189.957C131.509 190.075 132.604 189.969 133.183 190.986C132.713 191.369 132.438 190.87 132.091 190.758C130.625 190.284 129.732 190.693 129.18 192.127C131.032 192.202 131.032 192.202 131.529 193.165C130.579 192.934 129.689 192.239 128.627 192.856C127.992 193.224 127.069 193.561 127.35 194.362C127.625 195.145 128.568 195.029 129.348 194.939C130.106 194.849 130.698 194.197 131.529 194.396C130.47 195.668 128.812 195.927 127.635 195.251C125.865 194.237 125.852 195.687 125.226 196.32C124.813 196.738 124.965 197.018 125.567 197.153C126.692 197.405 127.496 198.038 127.923 199.067C127.082 199.135 126.285 197.704 125.408 199.001C126.172 199.117 126.156 199.117 126.103 199.8C126.096 199.909 126.328 200.077 126.487 200.142C126.93 200.333 127.377 200.523 127.846 200.632C128.121 200.694 128.386 201.134 128.683 200.779C129.031 200.364 128.379 200.202 128.339 199.868C128.525 199.756 128.703 199.656 128.895 199.865C129.984 201.047 131.115 200.607 132.256 199.946C134.116 198.867 135.317 197.14 136.898 195.787C137.563 195.216 138.026 194.318 139.144 194.378C138.483 195.522 137.133 196.068 136.422 197.165C136.326 197.262 136.127 197.399 136.147 197.446C136.293 197.742 136.465 197.486 136.627 197.436C138.367 196.311 140.646 196.205 142.244 194.811C142.436 194.103 142.615 193.396 142.297 192.607C140.845 193.383 142.085 194.097 142.251 194.808C141.933 194.244 141.513 194.69 141.364 194.845C140.296 195.974 139.69 195.319 139.121 194.393C139.601 193.368 140.891 193.233 141.566 192.417C141.854 192.067 142.476 191.927 142.377 191.341C142.006 189.124 141.87 186.855 140.775 184.766C139.657 185.501 140.636 186.976 139.429 187.569C139.316 186.777 139.111 185.925 139.518 185.218C142.241 180.51 144.854 175.749 148.305 171.447C150.353 168.893 152.662 166.368 153.522 163.241C154.346 160.254 155.984 158.003 158.088 155.711C160.923 152.625 163.004 148.933 166.302 146.174C166.412 146.271 166.521 146.37 166.63 146.467C163.279 149.7 160.847 153.625 157.721 157.005C156.212 158.636 155.021 160.17 154.462 162.333C153.426 166.343 150.541 169.454 148.06 172.734C145.668 175.899 143.528 179.2 141.645 182.658C141.219 183.444 141.109 184.058 141.493 184.95C142.684 187.715 142.949 190.671 143.065 193.623C143.118 194.979 142.181 195.899 140.904 196.27C138.106 197.084 135.839 198.646 133.596 200.336C131.542 201.882 127.645 201.751 125.541 200.261C124.075 199.223 123.741 197.867 124.558 196.292C125.048 195.344 125.792 194.58 126.553 193.832C128.789 191.631 130.467 189.102 131.476 186.212C131.939 184.887 132.832 184.058 134.251 183.893C135.102 183.793 135.307 183.388 135.482 182.733C136.782 177.931 138.003 173.111 139.459 168.354C140.779 164.045 142.965 160.117 146.151 156.737C146.578 156.285 146.806 155.789 146.969 155.25C147.991 151.845 149.658 148.808 152.619 146.529C153.046 146.202 153.198 145.803 153.294 145.341C155.071 136.74 158.243 128.568 162.002 120.586C162.898 118.681 163.057 116.586 163.907 114.669C166.005 109.933 169.217 106.382 174.798 105.206C175.361 105.088 175.85 104.673 176.386 104.418C177.412 103.925 178.444 103.386 179.625 103.392C181.365 103.404 182.831 102.737 184.157 101.805C186.02 100.499 187.274 99.1392 187.165 96.4922C186.92 90.425 185.798 84.4794 185.094 78.4777C185.064 78.2221 185.087 77.9165 184.948 77.7232C181.554 73.0279 181.249 67.4252 179.78 62.1656C179.334 60.5724 179.099 58.9168 178.053 57.5201C177.931 57.3548 177.805 57.1553 177.789 56.962C177.561 54.2776 176.839 51.6992 175.81 49.1863C177.124 49.5978 176.535 51.2565 177.733 51.8333C177.494 50.6859 177.994 49.4108 176.704 48.6376C176.389 48.4474 176.088 48.0358 175.721 48.2697C175.341 48.5097 176.125 48.8402 175.81 49.1863ZM199.227 124.842C198.195 125.724 196.964 125.971 195.598 125.961C194.923 125.955 194.754 125.116 194.049 125.285C192.789 125.587 191.495 125.531 190.092 125.481C190.367 125.902 190.552 126.183 190.738 126.463C190.169 126.597 189.418 126.516 189.497 127.405C188.544 126.572 187.724 125.59 186.351 124.973C186.625 125.818 186.89 126.535 187.092 127.268C188.825 133.597 187.978 139.913 186.93 146.221C186.801 146.991 186.85 147.614 187.204 148.288C188.392 150.533 189.99 152.494 191.859 154.261C193.341 155.661 194.463 157.176 194.919 159.225C195.832 163.337 197.96 166.941 200.788 170.184C203.584 173.392 205.946 176.853 207.901 180.582C208.788 182.271 209.013 183.868 208.381 185.614C208.043 186.549 208.096 187.98 208.659 188.229C210.392 188.993 209.777 190.53 210.369 191.628C210.809 192.442 210.846 193.421 211.497 194.153C211.577 194.384 211.441 194.693 211.769 194.861C211.884 194.543 211.921 194.259 211.666 194.007C211.295 192.314 210.922 190.621 210.551 188.925C212.056 191.054 211.61 193.823 213.539 195.937C213.8 194.072 212.847 192.423 213.145 190.696C213.797 192.142 213.787 193.773 214.859 195.039C214.905 195.11 214.951 195.182 214.997 195.257C215.014 195.198 215.031 195.135 215.05 195.076C214.978 195.076 214.905 195.076 214.832 195.076C215.312 192.756 214.19 190.524 214.28 187.774C215.662 189.601 216.417 191.357 217.995 192.713C218.293 191.656 217.932 190.982 217.561 190.368C215.887 187.609 215.239 184.463 213.274 181.738C211.147 178.789 210.128 175.188 208.837 171.78C206.661 166.034 205.079 159.992 200.282 155.455C200.911 155.041 201.126 155.664 201.41 155.917C202.836 157.164 203.852 158.692 204.735 160.313C207.094 164.637 208.447 169.326 210.247 173.85C210.621 174.792 210.836 175.815 211.792 176.931C211.196 172.765 211.008 168.952 210.779 165.139C210.531 161.049 209.741 157.039 207.888 153.279C207.66 152.815 207.316 152.353 207.263 151.867C206.978 149.26 205.962 146.869 204.904 144.49C204.709 144.051 204.613 143.62 204.609 143.143C204.54 137.494 203.968 131.879 203.226 126.276C202.141 126.407 201.182 126.65 200.987 127.851C200.017 126.345 201.576 124.942 201.202 123.452C200.441 123.832 200.441 123.832 200.226 124.736C199.395 128.209 197.761 129.503 194.506 128.948C192.938 128.68 191.419 128.022 190.714 126.442C191.422 126.407 191.733 126.99 192.203 127.311C195.75 129.725 198.175 128.986 199.511 125.057C199.634 124.736 199.733 124.415 199.515 124.081C199.197 124.268 199.319 124.593 199.227 124.842ZM223.44 198.446C224.406 199.425 224.959 198.315 225.879 198.088C225.111 197.948 224.856 197.031 224.069 197.499C224.224 196.32 225.171 195.753 226.166 195.163C225.435 194.138 224.512 193.339 223.506 192.626C223.288 192.47 223.037 192.092 222.676 192.435C221.105 193.944 219.255 193.249 217.466 193.034C217.333 193.018 216.982 192.738 217.078 193.087C217.254 193.717 216.989 193.689 216.536 193.555C216.122 193.433 216.139 193.115 216.165 192.797C216.232 191.974 216.231 191.974 215.249 191.65C215.557 193.093 215.725 194.54 215.497 195.974C215.404 196.551 215.712 196.722 216.073 196.897C218.385 198.013 220.625 199.457 223.44 198.446ZM183.694 154.199C184.544 150.009 185.216 145.803 185.242 141.516C185.974 145.207 185.09 148.846 184.875 152.515C185.454 150.617 185.904 148.712 186.265 146.791C187.337 141.104 187.926 135.39 187.045 129.631C186.708 127.417 186 125.313 184.607 123.439C184.002 122.625 183.039 122.501 182.295 122.569C181.61 122.632 181.861 123.607 181.782 124.197C181.494 126.342 181.947 128.459 182.073 130.616C181.732 130.142 181.54 129.64 181.448 129.123C181.044 126.912 180.892 124.696 181.448 122.482C181.527 122.164 181.795 121.749 181.286 121.543C180.909 121.391 180.694 121.749 180.462 121.936C179.413 122.772 178.897 123.913 178.517 125.116C177.911 127.028 178.057 128.992 178.235 131.184C177.302 130.332 177.484 129.469 177.481 128.689C177.465 125.198 178.341 122.077 182.225 120.1C179.006 119.826 176.406 122.036 175.84 125.007C175.208 128.306 175.708 131.52 176.747 134.654C178.934 141.242 181.815 147.652 182.258 154.685C183.284 150.155 182.023 145.697 181.845 141.207C182.659 143.948 182.996 146.738 183.198 149.55C183.158 149.656 183.171 149.756 183.234 149.85C183.238 150.062 183.238 150.271 183.241 150.483C183.241 150.582 183.238 150.685 183.238 150.785C183.241 150.997 183.244 151.209 183.248 151.421C183.248 152.852 183.248 154.28 183.248 155.711C183.294 155.711 183.34 155.708 183.386 155.708C183.482 155.2 183.588 154.701 183.694 154.199ZM178.024 44.7746C177.862 44.4972 177.488 44.0856 177.339 44.2321C176.942 44.6281 177.491 44.9087 177.703 45.2205C178.08 45.7879 178.474 46.3491 178.834 46.9259C179.264 47.6087 180.035 48.1106 179.823 49.1052C179.387 51.1754 179.079 53.2643 180.055 55.3096C178.116 53.5137 179.056 51.3126 179.135 49.2237C177.908 49.5573 178.166 50.4334 178.183 51.1785C178.192 51.5838 178.546 52.1357 178.371 52.3695C177.137 54.0188 177.948 55.7242 178.589 57.1085C179.456 58.9792 179.995 60.8842 180.521 62.8296C181.868 67.8118 182.311 73.0622 185.441 77.5206C185.669 77.8448 185.725 78.3063 185.762 78.7116C186.271 84.5792 187.515 90.3564 187.763 96.274C187.889 99.2327 186.629 100.807 184.482 102.301C184.217 102.485 183.889 102.6 183.654 102.809C183.019 103.376 182.715 104.072 182.956 104.904C183.191 105.715 183.913 105.824 184.637 105.877C186.007 105.98 187.383 106.042 188.753 106.145C189.484 106.201 190.01 106.129 190.579 105.49C191.535 104.414 193.553 104.346 194.734 105.188C195.091 105.443 195.379 105.465 195.779 105.431C196.762 105.35 197.745 105.203 198.74 105.362C199.604 105.503 199.865 105.066 199.958 104.305C200.464 100.043 199.624 96.0651 197.281 92.3768C197.004 91.9371 196.689 91.5412 196.573 90.9987C194.909 83.2978 191.644 76.1675 187.684 69.3146C184.941 64.5694 181.871 60.0767 182.291 54.2059C182.536 50.6547 180.895 47.3406 178.024 44.7746ZM206.091 183.656C205.463 184.943 205.284 186.234 205.251 187.559C205.218 188.859 204.097 190.409 205.01 191.353C205.853 192.226 207.57 192.354 208.907 192.797C208.973 192.819 209.086 192.728 209.254 192.654C207.918 189.813 208.265 186.487 206.091 183.656ZM204.646 191.675C203.944 193.24 204.447 194.069 205.635 194.602C207.19 195.301 208.913 195.332 210.568 195.64C210.879 195.7 211.236 195.746 211.223 195.238C211.206 194.602 209.003 193.146 208.411 193.402C206.141 194.381 205.155 194.01 204.646 191.675ZM220.221 192.841C220.962 192.778 222.074 192.766 222.018 191.958C221.962 191.163 220.949 190.64 220.006 190.795C219.53 190.873 218.554 190.471 218.617 191.584C218.673 192.585 219.189 192.972 220.221 192.841ZM207.686 185.324C208.943 183.132 207.723 181.483 206.575 179.821C206.885 181.639 206.578 183.575 207.686 185.324ZM202.519 122.666C201.721 123.782 201.672 124.892 201.523 126.014C203.283 125.618 203.392 125.282 202.519 122.666ZM195.485 125.138C197.103 125.497 197.616 125.332 198.611 124.312C197.496 124.605 196.491 124.873 195.485 125.138ZM190.585 106.235C191.932 105.958 193.077 105.939 194.357 105.275C192.845 105.088 191.704 105.119 190.585 106.235ZM217.866 189.498C218.177 190.786 219.05 190.334 219.977 190.268C219.348 189.523 218.696 189.386 217.866 189.498Z" fill="#2C2C2C"/>
<path d="M167.252 145.853C167.047 146.062 166.838 146.271 166.633 146.479C166.524 146.383 166.415 146.283 166.306 146.186C166.474 146.03 166.643 145.875 166.812 145.719C166.961 145.762 167.106 145.809 167.252 145.853Z" fill="#2C2C2C"/>
<path d="M167.325 145.79L167.252 145.853C167.106 145.809 166.961 145.762 166.815 145.719C166.918 145.61 167.02 145.504 167.123 145.394C167.189 145.525 167.259 145.659 167.325 145.79Z" fill="#2C2C2C"/>
<path d="M167.123 145.394C167.02 145.504 166.918 145.61 166.815 145.719C166.646 145.875 166.478 146.03 166.309 146.186C163.01 148.946 160.93 152.637 158.094 155.724C155.99 158.015 154.349 160.266 153.529 163.253C152.669 166.38 150.359 168.906 148.312 171.459C144.858 175.762 142.244 180.525 139.525 185.23C139.114 185.938 139.323 186.792 139.435 187.581L139.468 187.556C138.506 187.559 138.086 187.213 138.059 186.2C138.043 185.648 137.973 184.632 136.792 184.747L136.822 184.769C135.416 183.643 136.233 182.374 136.59 181.162C138.006 176.394 138.797 171.471 140.63 166.807C142.075 163.131 144.074 159.77 146.833 156.827C147.124 156.516 147.312 156.201 147.442 155.774C148.48 152.282 150.019 149.055 153.281 146.86C153.741 146.551 153.651 146.152 153.747 145.772C154.928 140.939 156.192 136.128 157.995 131.458C158.068 131.274 158.167 131.099 158.296 130.841C159.259 131.682 159.748 132.845 160.93 133.341C163.599 136.091 166.997 137.697 170.755 138.567C172.165 138.894 171.867 139.221 171.255 139.994C169.842 141.775 168.492 143.592 167.123 145.394Z" fill="#FBFBFB"/>
<path d="M214.865 195.042C213.793 193.776 213.803 192.142 213.151 190.699C212.854 192.423 213.807 194.075 213.545 195.94C211.616 193.826 212.06 191.057 210.558 188.928C210.928 190.621 211.302 192.314 211.673 194.01C211.616 194.06 211.56 194.11 211.504 194.156C210.852 193.424 210.816 192.448 210.376 191.631C209.784 190.533 210.399 189 208.665 188.233C208.103 187.986 208.05 186.555 208.388 185.617C209.019 183.871 208.794 182.275 207.908 180.585C205.953 176.853 203.59 173.392 200.795 170.187C197.97 166.941 195.839 163.34 194.926 159.228C194.469 157.18 193.348 155.664 191.866 154.264C189.993 152.494 188.399 150.536 187.211 148.291C186.854 147.617 186.807 146.994 186.936 146.224C187.985 139.92 188.835 133.6 187.098 127.271C186.897 126.538 186.632 125.821 186.357 124.976C187.73 125.593 188.551 126.576 189.504 127.408L189.537 127.417C190.456 128.449 191.436 129.438 192.279 130.52C193.364 131.907 193.434 133.587 192.6 134.859C192.097 134.211 192.326 133.179 191.062 132.456C192.345 135.371 192.395 138.102 192.567 140.814C192.594 141.238 192.713 141.588 192.951 141.959C195.574 146.027 197.731 150.317 199.627 154.726C199.766 155.053 199.799 155.455 200.312 155.471L200.285 155.455C205.083 159.989 206.661 166.034 208.841 171.78C210.131 175.185 211.15 178.789 213.277 181.738C215.242 184.46 215.891 187.609 217.565 190.368C217.935 190.982 218.296 191.656 217.998 192.713C216.42 191.357 215.666 189.601 214.283 187.774C214.197 190.524 215.315 192.76 214.835 195.076L214.865 195.042Z" fill="#FBFBFB"/>
<path d="M178.024 44.7747C180.895 47.3406 182.536 50.6517 182.282 54.2059C181.865 60.0767 184.931 64.5694 187.674 69.3146C191.637 76.1706 194.903 83.3009 196.564 90.9987C196.679 91.5412 196.994 91.9372 197.272 92.3768C199.614 96.0651 200.454 100.043 199.948 104.305C199.859 105.066 199.594 105.499 198.73 105.362C197.735 105.203 196.752 105.347 195.77 105.431C195.366 105.465 195.078 105.443 194.724 105.188C193.546 104.346 191.525 104.411 190.569 105.49C190 106.129 189.474 106.201 188.743 106.145C187.373 106.042 185.997 105.976 184.627 105.877C183.903 105.824 183.181 105.715 182.946 104.904C182.705 104.072 183.006 103.376 183.645 102.809C183.879 102.6 184.207 102.485 184.472 102.301C186.619 100.804 187.879 99.2296 187.753 96.274C187.505 90.3565 186.265 84.5792 185.752 78.7116C185.716 78.3063 185.659 77.8417 185.431 77.5206C182.301 73.0622 181.858 67.8119 180.512 62.8297C179.986 60.8842 179.446 58.9792 178.579 57.1086C177.938 55.7243 177.127 54.022 178.361 52.3695C178.536 52.1326 178.183 51.5839 178.173 51.1786C178.156 50.4303 177.901 49.5573 179.125 49.2237C179.046 51.3126 178.106 53.5169 180.045 55.3096C179.072 53.2643 179.377 51.1754 179.814 49.1052C180.022 48.1107 179.254 47.6087 178.824 46.9259C178.46 46.3491 178.07 45.7879 177.693 45.2205C177.812 45.074 177.918 44.9243 178.024 44.7747Z" fill="#FBFBFB"/>
<path d="M203.928 109.312C203.799 110.291 204.464 111.08 204.676 111.988C205.291 114.616 204.394 116.92 203.637 119.377C202.505 123.049 199.323 123.604 196.223 124.356C192.336 125.3 188.541 125.325 185.034 122.999C182.834 121.54 182.708 119.355 182.493 117.213C182.242 114.712 182.894 112.393 184.594 110.391C184.759 110.195 185.163 109.995 184.779 109.652L184.776 109.655C185.315 110.001 185.51 109.465 185.788 109.263C189.894 106.319 194.638 105.746 199.591 105.936C200.127 105.958 200.454 106.204 200.752 106.641C201.017 107.033 201.189 107.71 201.983 107.47L201.959 107.442C201.811 108.009 202.039 108.221 202.638 108.084L202.618 108.065C202.611 108.184 202.605 108.299 202.595 108.418C202.72 108.411 202.843 108.405 202.968 108.399L202.952 108.38C202.909 109.057 203.236 109.381 203.961 109.331L203.928 109.312Z" fill="#FBFBFB"/>
<path d="M200.99 127.854C201.185 126.653 202.145 126.41 203.23 126.279C203.971 131.882 204.543 137.494 204.613 143.146C204.619 143.624 204.712 144.051 204.907 144.493C205.966 146.872 206.982 149.264 207.266 151.87C207.319 152.356 207.663 152.818 207.891 153.282C209.744 157.042 210.535 161.052 210.783 165.142C211.014 168.955 211.2 172.768 211.795 176.934C210.839 175.818 210.624 174.795 210.25 173.853C208.45 169.326 207.097 164.64 204.738 160.316C203.855 158.695 202.84 157.164 201.414 155.92C201.129 155.671 200.914 155.047 200.285 155.459L200.312 155.474C200.702 155.265 200.388 155.025 200.309 154.838C198.555 150.729 196.617 146.695 194.201 142.891C193.411 141.644 193.166 140.397 192.974 138.991C192.709 137.048 193.315 136.169 195.263 135.433C198.674 134.145 200.871 131.767 200.957 128.069C201.013 128.007 201.023 127.932 200.99 127.854Z" fill="#FBFBFB"/>
<path d="M174.04 106.4C172.691 107.096 171.361 107.825 170.232 108.814C169.945 109.066 169.041 109.269 169.766 109.955L169.73 109.964C169.597 109.627 169.392 109.637 169.121 109.83C165.912 112.087 165.7 117.528 168.731 119.981C168.912 120.128 169.101 120.169 169.23 119.913L169.2 119.891C169.366 121.269 170.643 121.497 171.662 121.734C172.466 121.921 172.734 122.36 173.203 122.859C174.973 124.73 175.291 126.894 175.116 129.26C175.056 130.067 175.129 130.906 175.41 131.714C175.923 133.185 174.917 134.27 174.239 135.427C172.294 138.757 172.29 138.76 168.529 137.363C166.167 136.487 164.046 135.234 162.041 133.774C161.753 133.566 161.551 132.855 160.92 133.347C161.465 132.711 160.638 132.534 160.41 132.347C158.743 130.962 158.389 129.484 159.53 127.601C160.255 126.404 160.592 125.004 161.264 123.776C162.878 120.82 163.351 117.503 164.678 114.469C166.418 110.497 169.161 107.401 173.719 106.089C173.829 106.195 173.934 106.298 174.04 106.4Z" fill="#1E8FB3"/>
<path d="M183.191 149.544C182.99 146.735 182.652 143.945 181.838 141.201C182.014 145.691 183.277 150.146 182.252 154.679C181.809 147.645 178.927 141.235 176.74 134.647C175.701 131.517 175.202 128.3 175.834 125.001C176.403 122.03 179 119.819 182.219 120.094C178.335 122.07 177.458 125.191 177.475 128.683C177.478 129.466 177.296 130.326 178.229 131.177C178.054 128.986 177.905 127.021 178.51 125.11C178.891 123.907 179.407 122.766 180.455 121.93C180.687 121.746 180.905 121.388 181.279 121.537C181.792 121.743 181.524 122.158 181.441 122.476C180.882 124.692 181.038 126.906 181.441 129.117C181.537 129.634 181.729 130.136 182.067 130.61C181.941 128.452 181.488 126.335 181.775 124.19C181.855 123.598 181.603 122.625 182.288 122.563C183.036 122.494 183.995 122.619 184.601 123.433C185.994 125.307 186.702 127.414 187.039 129.625C187.922 135.386 187.333 141.101 186.258 146.785C185.894 148.705 185.444 150.614 184.869 152.509C185.084 148.84 185.967 145.201 185.236 141.51C185.209 145.797 184.538 150.006 183.688 154.193C183.132 153.323 183.843 152.269 183.234 151.409C183.231 151.197 183.228 150.985 183.224 150.773C183.261 150.744 183.334 150.707 183.327 150.688C183.307 150.614 183.264 150.542 183.228 150.467C183.224 150.255 183.224 150.046 183.221 149.834C183.254 149.803 183.324 149.759 183.317 149.744C183.291 149.678 183.238 149.613 183.191 149.544Z" fill="#FBFBFB"/>
<path d="M184.779 109.655C182.272 111.551 181.918 114.21 181.878 116.976C181.868 117.724 182.52 118.837 181.888 119.13C181.048 119.517 179.946 119.738 178.881 119.614C177.428 119.442 176.035 119.514 175.149 120.87L175.169 120.851C174.127 121.484 174.649 122.519 174.385 123.611C172.879 121.528 172.436 119.402 172.684 117.113C173.111 113.21 174.606 109.746 177.458 106.834C177.686 106.6 178.259 106.382 177.822 105.883L177.792 105.911C178.864 106.167 179.139 105.147 179.784 104.745C180.598 104.237 181.282 103.56 182.348 103.532C182.391 106.051 182.765 106.416 185.504 106.535C186.516 106.578 187.532 106.541 188.577 106.697C187.33 107.8 185.583 108.184 184.779 109.665C184.776 109.659 184.779 109.655 184.779 109.655Z" fill="#1E8FB3"/>
<path d="M139.138 194.393C138.019 194.337 137.556 195.235 136.891 195.803C135.31 197.152 134.109 198.88 132.25 199.962C131.108 200.623 129.977 201.062 128.888 199.881C128.697 199.672 128.518 199.771 128.333 199.887L128.204 199.899C128.855 199.363 128.223 199.273 127.886 199.079L127.919 199.082C127.489 198.057 126.685 197.421 125.564 197.168C124.958 197.034 124.806 196.757 125.223 196.336C125.848 195.706 125.861 194.253 127.631 195.266C128.809 195.943 130.467 195.684 131.525 194.412L131.499 194.428C132.137 194.234 132.772 194.053 133.401 194.761C133.206 194.032 133.183 193.414 133.318 192.716C132.769 193.336 132.098 193.115 131.495 193.165L131.522 193.184C131.026 192.22 131.026 192.22 129.173 192.145C129.725 190.711 130.619 190.303 132.084 190.777C132.435 190.889 132.71 191.391 133.176 191.004L133.153 190.979C133.332 191.802 133.447 192.613 134.546 192.931C134.757 192.993 135.009 193.252 135.277 193.118C135.535 192.99 135.637 192.613 135.475 192.445C134.595 191.534 135.581 191.294 135.948 190.652C136.785 189.19 137.589 187.899 139.459 187.556L139.425 187.581C140.633 186.989 139.657 185.514 140.772 184.778C141.867 186.867 142.006 189.14 142.373 191.353C142.472 191.94 141.85 192.08 141.563 192.429C140.888 193.246 139.598 193.38 139.118 194.406L139.138 194.393Z" fill="#FBFBFB"/>
<path d="M169.733 109.964L169.77 109.955C172.195 107.685 175.314 106.488 178.388 104.941C178.13 105.356 177.961 105.633 177.789 105.911L177.819 105.883C173.326 109.668 171.821 114.51 172.165 120.019C172.188 120.409 172.674 120.895 172.228 121.151C171.817 121.384 171.281 121.101 170.851 120.854C170.299 120.536 169.753 120.212 169.204 119.891L169.234 119.913C166.24 115.489 166.332 113.662 169.733 109.964Z" fill="#FBFBFB"/>
<path d="M223.44 198.446C220.625 199.457 218.385 198.013 216.076 196.9C215.712 196.725 215.408 196.554 215.5 195.977C215.732 194.54 215.563 193.093 215.252 191.653C216.235 191.977 216.235 191.977 216.169 192.8C216.142 193.118 216.126 193.436 216.539 193.558C216.992 193.692 217.257 193.72 217.082 193.09C216.982 192.741 217.336 193.021 217.469 193.037C219.259 193.252 221.108 193.947 222.679 192.438C223.037 192.095 223.291 192.473 223.51 192.629C224.515 193.343 225.439 194.144 226.17 195.166C225.174 195.756 224.228 196.32 224.072 197.502L224.109 197.52C223.49 197.589 223.288 197.919 223.44 198.471V198.446Z" fill="#FBFBFB"/>
<path d="M201.979 107.476C201.86 107.202 201.738 106.924 201.619 106.65C204.606 106.669 208.483 109.431 209.201 112.056C210.147 115.517 207.898 119.233 203.402 121.547C203.183 120.73 203.772 120.169 204.093 119.586C205.685 116.683 205.893 113.68 204.92 110.585C204.762 110.076 204.652 109.462 203.925 109.319L203.954 109.341C203.875 108.779 203.557 108.446 202.945 108.39L202.962 108.408C203.038 108.118 202.909 108.019 202.611 108.078L202.631 108.097C202.664 107.641 202.393 107.467 201.953 107.454L201.979 107.476Z" fill="#FBFBFB"/>
<path d="M200.99 127.854C201.023 127.932 201.01 128.003 200.954 128.069C200.388 128.272 200.391 128.746 200.295 129.207C199.647 132.278 196.808 134.841 193.45 135.414C194.129 131.904 193.116 129.413 190.145 127.277C189.874 127.081 189.666 127.078 189.537 127.414L189.504 127.405C189.424 126.516 190.175 126.594 190.744 126.463L190.721 126.441C191.426 128.022 192.944 128.68 194.512 128.948C197.768 129.506 199.402 128.212 200.232 124.736C200.448 123.832 200.448 123.832 201.208 123.452C201.579 124.945 200.021 126.348 200.99 127.854Z" fill="#1E8FB3"/>
<path d="M206.092 183.656C208.265 186.484 207.918 189.81 209.251 192.654C209.082 192.725 208.97 192.819 208.904 192.797C207.567 192.354 205.85 192.226 205.006 191.353C204.093 190.409 205.215 188.859 205.248 187.559C205.288 186.234 205.466 184.946 206.092 183.656Z" fill="#FBFBFB"/>
<path d="M190.741 126.463C190.556 126.183 190.37 125.902 190.096 125.481C191.498 125.531 192.792 125.587 194.052 125.285C194.757 125.116 194.926 125.955 195.601 125.961C196.964 125.971 198.194 125.724 199.23 124.842C199.326 124.914 199.422 124.986 199.518 125.06C198.181 128.989 195.756 129.728 192.21 127.314C191.74 126.996 191.429 126.41 190.721 126.445C190.718 126.445 190.741 126.463 190.741 126.463Z" fill="#FBFBFB"/>
<path d="M204.646 191.675C205.155 194.01 206.144 194.381 208.414 193.405C209.006 193.149 211.209 194.608 211.226 195.241C211.239 195.746 210.879 195.7 210.571 195.644C208.917 195.332 207.193 195.304 205.638 194.605C204.447 194.069 203.941 193.237 204.646 191.675Z" fill="#FBFBFB"/>
<path d="M135.495 186.945C134.645 185.86 133.428 186.119 132.223 186.275C133.017 184.401 134.02 184.095 136.815 184.775L136.786 184.753C136.925 185.015 137.05 185.283 137.199 185.539C137.623 186.265 137.795 187.101 137.083 187.631C136.461 188.092 136.326 187.014 135.78 186.936C135.677 186.92 135.571 186.933 135.466 186.933L135.495 186.945Z" fill="#FBFBFB"/>
<path d="M134.827 189.445C134.215 188.339 133.791 188.161 131.486 188.086C131.763 186.618 132.852 186.577 134.059 186.714C134.542 186.77 134.92 187.391 135.492 186.948L135.466 186.933C135.105 187.307 135.558 187.422 135.724 187.603C136.756 188.735 136.623 189.227 135.135 189.745L135.151 189.757C135.158 189.642 135.164 189.523 135.171 189.408C135.049 189.414 134.923 189.42 134.801 189.427L134.827 189.445Z" fill="#FBFBFB"/>
<path d="M131.522 194.418C130.692 194.222 130.096 194.87 129.342 194.961C128.561 195.054 127.618 195.167 127.344 194.384C127.062 193.583 127.985 193.246 128.621 192.878C129.683 192.261 130.573 192.956 131.522 193.187L131.496 193.168C131.694 193.589 131.195 194.01 131.499 194.431L131.522 194.418Z" fill="#FBFBFB"/>
<path d="M133.176 191.011C132.597 189.994 131.502 190.097 130.427 189.982C131.019 188.678 131.912 188.379 133.229 188.781C133.798 188.956 134.146 189.558 134.827 189.449L134.801 189.43C134.728 189.72 134.844 189.829 135.151 189.76L135.135 189.748C134.93 191.329 134.566 191.556 133.153 190.989L133.176 191.011Z" fill="#FBFBFB"/>
<path d="M220.221 192.841C219.193 192.972 218.673 192.585 218.617 191.587C218.554 190.474 219.53 190.876 220.006 190.799C220.953 190.646 221.965 191.166 222.018 191.961C222.071 192.766 220.963 192.781 220.221 192.841Z" fill="#FBFBFB"/>
<path d="M175.145 120.867C176.31 120.939 177.097 119.704 178.464 120.078C177.2 121.257 176.002 122.42 175.47 124.153C174.659 122.946 175.374 121.877 175.165 120.851L175.145 120.867Z" fill="#1E8FB3"/>
<path d="M207.686 185.324C206.578 183.575 206.885 181.639 206.574 179.821C207.722 181.483 208.943 183.129 207.686 185.324Z" fill="#FBFBFB"/>
<path d="M139.121 194.409C139.69 195.335 140.296 195.99 141.364 194.861C141.513 194.702 141.933 194.259 142.251 194.824L142.244 194.827C140.646 196.22 138.367 196.326 136.627 197.452C136.557 197.361 136.488 197.271 136.418 197.184C137.13 196.086 138.479 195.538 139.141 194.396C139.138 194.393 139.121 194.409 139.121 194.409Z" fill="#FBFBFB"/>
<path d="M128.207 199.902L128.336 199.89C128.376 200.224 129.027 200.383 128.68 200.8C128.382 201.159 128.114 200.719 127.843 200.654C127.377 200.545 126.927 200.351 126.483 200.164C126.324 200.096 126.093 199.93 126.1 199.821C126.152 199.139 126.172 199.139 125.405 199.023C126.281 197.726 127.079 199.157 127.919 199.089L127.886 199.086C127.459 199.541 128.055 199.644 128.207 199.902Z" fill="#1E8FB3"/>
<path d="M175.81 49.1863C176.125 48.8371 175.344 48.5097 175.721 48.2697C176.092 48.0358 176.389 48.4474 176.704 48.6376C177.991 49.4108 177.494 50.6859 177.733 51.8333C176.535 51.2596 177.121 49.5978 175.81 49.1863C175.81 49.1863 175.81 49.1894 175.81 49.1863Z" fill="#1E8FB3"/>
<path d="M202.519 122.666C203.392 125.279 203.283 125.615 201.523 126.014C201.672 124.895 201.718 123.782 202.519 122.666Z" fill="#1E8FB3"/>
<path d="M195.485 125.138C196.491 124.873 197.497 124.605 198.611 124.312C197.616 125.332 197.103 125.497 195.485 125.138Z" fill="#1E8FB3"/>
<path d="M224.069 197.502C224.856 197.034 225.108 197.951 225.879 198.091C224.959 198.319 224.406 199.428 223.44 198.45L223.437 198.474C223.884 198.297 224.297 198.097 224.105 197.524L224.069 197.502Z" fill="#1E8FB3"/>
<path d="M183.238 151.415C183.846 152.275 183.135 153.329 183.691 154.199C183.585 154.701 183.479 155.2 183.376 155.699C183.33 155.699 183.284 155.702 183.238 155.702C183.238 154.277 183.238 152.846 183.238 151.415Z" fill="#1E8FB3"/>
<path d="M190.585 106.235C191.704 105.119 192.845 105.088 194.357 105.275C193.077 105.939 191.932 105.958 190.585 106.235Z" fill="#1E8FB3"/>
<path d="M217.866 189.498C218.696 189.386 219.348 189.523 219.976 190.269C219.05 190.334 218.177 190.786 217.866 189.498Z" fill="#1E8FB3"/>
<path d="M142.247 194.824C142.082 194.113 140.841 193.399 142.294 192.622C142.611 193.411 142.433 194.119 142.241 194.827C142.241 194.827 142.247 194.824 142.247 194.824Z" fill="#FBFBFB"/>
<path d="M177.703 45.2205C177.491 44.9087 176.942 44.6281 177.339 44.2321C177.484 44.0856 177.862 44.4971 178.024 44.7746C177.918 44.9243 177.812 45.0739 177.703 45.2205Z" fill="#FBFBFB"/>
<path d="M199.227 124.842C199.316 124.593 199.197 124.268 199.518 124.081C199.736 124.415 199.637 124.736 199.515 125.057C199.419 124.986 199.323 124.914 199.227 124.842Z" fill="#FBFBFB"/>
<path d="M211.673 194.007C211.924 194.259 211.888 194.543 211.775 194.861C211.448 194.693 211.583 194.384 211.504 194.153C211.56 194.103 211.616 194.057 211.673 194.007Z" fill="#FBFBFB"/>
<path d="M173.723 106.089C173.951 105.927 174.189 105.867 174.454 106.008C174.315 106.139 174.179 106.27 174.04 106.401C173.935 106.298 173.829 106.195 173.723 106.089Z" fill="#1E8FB3"/>
<path d="M183.191 149.544C183.238 149.613 183.29 149.678 183.324 149.753C183.33 149.769 183.261 149.812 183.228 149.843C183.165 149.75 183.155 149.65 183.191 149.544Z" fill="#1E8FB3"/>
<path d="M214.835 195.076C214.908 195.076 214.981 195.076 215.054 195.076C215.037 195.135 215.021 195.198 215.001 195.257C214.955 195.185 214.908 195.114 214.862 195.039C214.865 195.042 214.835 195.076 214.835 195.076Z" fill="#FBFBFB"/>
<path d="M183.234 150.476C183.271 150.548 183.314 150.62 183.334 150.698C183.34 150.716 183.267 150.754 183.231 150.782C183.231 150.679 183.231 150.579 183.234 150.476Z" fill="#1E8FB3"/>
<path d="M136.623 197.452C136.458 197.502 136.289 197.761 136.144 197.461C136.121 197.418 136.319 197.277 136.418 197.181C136.484 197.271 136.554 197.361 136.623 197.452Z" fill="#FBFBFB"/>
<path d="M133.153 190.986C134.566 191.553 134.93 191.325 135.135 189.745C136.627 189.23 136.759 188.735 135.724 187.603C135.558 187.419 135.105 187.307 135.466 186.932C135.571 186.932 135.677 186.92 135.78 186.936C136.326 187.014 136.461 188.095 137.083 187.631C137.795 187.104 137.623 186.268 137.199 185.539C137.05 185.283 136.921 185.015 136.786 184.753C137.967 184.638 138.036 185.651 138.053 186.206C138.079 187.219 138.499 187.562 139.462 187.562C137.596 187.905 136.789 189.196 135.952 190.658C135.585 191.3 134.599 191.541 135.479 192.451C135.641 192.619 135.538 192.997 135.28 193.124C135.012 193.255 134.761 192.997 134.549 192.937C133.448 192.619 133.335 191.809 133.153 190.986Z" fill="#2C2C2C"/>
<path d="M189.533 127.417C189.662 127.081 189.871 127.084 190.142 127.28C193.113 129.416 194.125 131.907 193.447 135.418C196.805 134.841 199.644 132.281 200.292 129.21C200.391 128.749 200.385 128.275 200.95 128.072C200.868 131.77 198.668 134.149 195.257 135.436C193.308 136.172 192.703 137.051 192.967 138.994C193.159 140.4 193.404 141.647 194.195 142.894C196.61 146.698 198.549 150.732 200.302 154.841C200.381 155.025 200.696 155.268 200.305 155.477C199.793 155.462 199.759 155.06 199.621 154.732C197.722 150.324 195.568 146.034 192.944 141.965C192.706 141.594 192.587 141.245 192.561 140.821C192.389 138.108 192.339 135.374 191.055 132.462C192.319 133.182 192.091 134.214 192.594 134.866C193.427 133.594 193.358 131.913 192.273 130.526C191.432 129.438 190.453 128.449 189.533 127.417Z" fill="#2C2C2C"/>
<path d="M202.945 108.383C203.557 108.439 203.875 108.773 203.954 109.334C203.23 109.387 202.902 109.06 202.945 108.383Z" fill="#2C2C2C"/>
<path d="M201.953 107.448C202.393 107.461 202.664 107.632 202.631 108.09C202.032 108.227 201.804 108.012 201.953 107.448Z" fill="#2C2C2C"/>
<path d="M202.611 108.072C202.909 108.012 203.038 108.112 202.962 108.402C202.836 108.408 202.714 108.415 202.588 108.421C202.598 108.305 202.604 108.19 202.611 108.072Z" fill="#2C2C2C"/>
<path d="M169.733 109.964C166.332 113.662 166.24 115.489 169.234 119.91C169.105 120.169 168.916 120.128 168.734 119.978C165.704 117.525 165.915 112.084 169.124 109.827C169.396 109.637 169.601 109.627 169.733 109.964Z" fill="#2C2C2C"/>
<path d="M131.499 194.434C131.194 194.013 131.694 193.592 131.495 193.171C132.101 193.121 132.769 193.343 133.318 192.722C133.183 193.421 133.206 194.038 133.401 194.767C132.769 194.057 132.134 194.237 131.499 194.434Z" fill="#2C2C2C"/>
<path d="M128.207 199.902C128.055 199.644 127.459 199.541 127.889 199.082C128.227 199.276 128.859 199.366 128.207 199.902Z" fill="#2C2C2C"/>
<path d="M224.105 197.52C224.294 198.094 223.884 198.294 223.437 198.471C223.285 197.92 223.483 197.589 224.105 197.52Z" fill="#2C2C2C"/>
<path d="M135.151 189.757C134.844 189.826 134.728 189.717 134.801 189.427C134.923 189.42 135.049 189.414 135.171 189.408C135.165 189.523 135.158 189.639 135.151 189.757Z" fill="#2C2C2C"/>
</g>
<defs>
<clipPath id="clip0_658_2876">
<rect width="103.011" height="159.82" fill="white" transform="translate(124.128 41.6319)"/>
</clipPath>
</defs>
</svg>
