<svg width="25" height="24" viewBox="0 0 25 24" fill="none" xmlns="http://www.w3.org/2000/svg">
<g id="duo icons/home">
<path id="Vector" d="M9.5 2H4.5C3.39543 2 2.5 2.89543 2.5 4V9C2.5 10.1046 3.39543 11 4.5 11H9.5C10.6046 11 11.5 10.1046 11.5 9V4C11.5 2.89543 10.6046 2 9.5 2Z" fill="white"/>
<path id="Vector_2" opacity="0.3" d="M20.5 2H15.5C14.3954 2 13.5 2.89543 13.5 4V9C13.5 10.1046 14.3954 11 15.5 11H20.5C21.6046 11 22.5 10.1046 22.5 9V4C22.5 2.89543 21.6046 2 20.5 2Z" fill="white"/>
<path id="Vector_3" opacity="0.3" d="M20.5 13H15.5C14.3954 13 13.5 13.8954 13.5 15V20C13.5 21.1046 14.3954 22 15.5 22H20.5C21.6046 22 22.5 21.1046 22.5 20V15C22.5 13.8954 21.6046 13 20.5 13Z" fill="white"/>
<path id="Vector_4" opacity="0.3" d="M9.5 13H4.5C3.39543 13 2.5 13.8954 2.5 15V20C2.5 21.1046 3.39543 22 4.5 22H9.5C10.6046 22 11.5 21.1046 11.5 20V15C11.5 13.8954 10.6046 13 9.5 13Z" fill="white"/>
</g>
</svg>
