<svg width="200" height="41" viewBox="0 0 200 41" fill="none" xmlns="http://www.w3.org/2000/svg">
<path fill-rule="evenodd" clip-rule="evenodd" d="M73.1184 7.7251H65.9906V20.5818C65.9906 23.9255 64.1849 25.4325 61.5714 25.4325C59.2905 25.4325 57.4373 24.0668 57.4373 21.1469V7.7251H50.3095V22.183C50.3095 28.5407 54.3961 31.9315 59.1954 31.9315C62.3317 31.9315 64.7076 30.8012 65.9906 29.0587V31.2721H73.1184V7.7251ZM92.7434 31.2722H100.917L92.4108 19.3103L100.631 7.72511H92.4583L88.3242 13.5648L84.1901 7.72511H76.0169L84.2376 19.3103L75.7318 31.2722H83.905L88.3242 25.0557L92.7434 31.2722Z" fill="white"/>
<path fill-rule="evenodd" clip-rule="evenodd" d="M120.545 7.0658C126.769 7.0658 131.901 12.4816 131.901 19.4986C131.901 26.5157 126.769 31.9315 120.545 31.9315C117.361 31.9315 115.032 30.8483 113.464 29.0587V40.691H106.337V7.72511H113.464V9.93854C115.032 8.14896 117.361 7.0658 120.545 7.0658ZM119.119 25.2442C122.398 25.2442 124.774 23.0308 124.774 19.4987C124.774 15.9667 122.398 13.7533 119.119 13.7533C115.84 13.7533 113.464 15.9667 113.464 19.4987C113.464 23.0308 115.84 25.2442 119.119 25.2442ZM143.068 11.9166C144.018 8.76127 147.202 7.25426 150.196 7.25426V15.2603C147.25 14.7893 143.068 15.9667 143.068 20.629V31.2722H135.94V7.7252H143.068V11.9166ZM164.929 31.9315C157.944 31.9315 152.337 26.5157 152.337 19.4986C152.337 12.4816 157.944 7.0658 164.929 7.0658C171.914 7.0658 177.521 12.4816 177.521 19.4986C177.521 26.5157 171.914 31.9315 164.929 31.9315ZM164.929 25.0558C168.018 25.0558 170.394 22.8423 170.394 19.4987C170.394 16.155 168.018 13.9416 164.929 13.9416C161.841 13.9416 159.465 16.155 159.465 19.4987C159.465 22.8423 161.841 25.0558 164.929 25.0558ZM188.31 14.6009C188.31 17.2852 199.999 15.4956 199.999 24.2081C199.999 29.6239 195.247 31.9315 190.115 31.9315C185.363 31.9315 181.752 30.1419 179.899 26.3273L186.076 22.8423C186.694 24.6319 188.024 25.6209 190.115 25.6209C191.826 25.6209 192.681 25.1028 192.681 24.161C192.681 21.5708 180.992 22.9365 180.992 14.7892C180.992 9.65598 185.363 7.0658 190.305 7.0658C194.154 7.0658 197.576 8.76119 199.571 12.1049L193.489 15.3544C192.824 14.1299 191.873 13.2822 190.305 13.2822C189.07 13.2822 188.31 13.7532 188.31 14.6009Z" fill="#FAFCFD"/>
<mask id="mask0_101_8824" style="mask-type:luminance" maskUnits="userSpaceOnUse" x="19" y="21" width="20" height="17">
<path fill-rule="evenodd" clip-rule="evenodd" d="M23.6243 23.3385L19.1524 27.7563L27.5161 36.0188C29.9758 38.4489 34.0002 38.4488 36.4598 36.0189C38.9193 33.589 38.9195 29.613 36.4597 27.1832L32.568 23.3386C31.3382 22.1237 29.7171 21.5161 28.0961 21.5161C26.4751 21.5161 24.8541 22.1237 23.6243 23.3385Z" fill="white"/>
</mask>
<g mask="url(#mask0_101_8824)">
<path fill-rule="evenodd" clip-rule="evenodd" d="M23.6243 23.3385L19.1524 27.7563L27.5161 36.0188C29.9758 38.4489 34.0002 38.4488 36.4598 36.0189C38.9193 33.589 38.9195 29.613 36.4597 27.1832L32.568 23.3386C31.3382 22.1237 29.7171 21.5161 28.0961 21.5161C26.4751 21.5161 24.8541 22.1237 23.6243 23.3385Z" fill="white" fill-opacity="0.2"/>
</g>
<mask id="mask1_101_8824" style="mask-type:luminance" maskUnits="userSpaceOnUse" x="19" y="23" width="20" height="15">
<path fill-rule="evenodd" clip-rule="evenodd" d="M19.1524 27.7563L27.5161 36.0188C29.9758 38.4487 34.0002 38.4487 36.4599 36.0189C38.3498 34.1519 38.7875 31.3719 37.7728 29.0819C38.0371 30.2174 37.8646 31.2557 37.1911 31.9207C35.8493 33.2465 33.0069 32.6078 30.8748 30.5013L23.6243 23.3385L19.1524 27.7563Z" fill="white"/>
</mask>
<g mask="url(#mask1_101_8824)">
<path fill-rule="evenodd" clip-rule="evenodd" d="M19.1524 27.7563L27.5161 36.0188C29.9758 38.4487 34.0002 38.4487 36.4599 36.0189C38.3498 34.1519 38.7875 31.3719 37.7728 29.0819C38.0371 30.2174 37.8646 31.2557 37.1911 31.9207C35.8493 33.2465 33.0069 32.6078 30.8748 30.5013L23.6243 23.3385L19.1524 27.7563Z" fill="white"/>
</g>
<mask id="mask2_101_8824" style="mask-type:luminance" maskUnits="userSpaceOnUse" x="19" y="0" width="20" height="17">
<path fill-rule="evenodd" clip-rule="evenodd" d="M27.5161 1.82251L19.1524 10.0851L23.6243 14.5028C26.0839 16.9326 30.1084 16.9326 32.568 14.5027L36.4597 10.6581C38.9195 8.22804 38.9193 4.25221 36.4598 1.82239C35.23 0.607545 33.609 0 31.9879 0C30.3669 0 28.7461 0.607545 27.5161 1.82251Z" fill="white"/>
</mask>
<g mask="url(#mask2_101_8824)">
<path fill-rule="evenodd" clip-rule="evenodd" d="M27.5161 1.82251L19.1524 10.0851L23.6243 14.5028C26.0839 16.9326 30.1084 16.9326 32.568 14.5027L36.4597 10.6581C38.9195 8.22804 38.9193 4.25221 36.4598 1.82239C35.23 0.607545 33.609 0 31.9879 0C30.3669 0 28.7461 0.607545 27.5161 1.82251Z" fill="white" fill-opacity="0.2"/>
</g>
<mask id="mask3_101_8824" style="mask-type:luminance" maskUnits="userSpaceOnUse" x="19" y="0" width="20" height="15">
<path fill-rule="evenodd" clip-rule="evenodd" d="M27.5161 1.82239L19.1524 10.0851L23.6243 14.5028L30.8748 7.34013C33.0069 5.2335 35.8493 4.59499 37.1911 5.92063C37.8646 6.58563 38.0371 7.62388 37.7728 8.75938C38.7875 6.46939 38.3498 3.68942 36.4599 1.82239C35.2301 0.607545 33.6091 0 31.9879 0C30.3669 0 28.7461 0.607545 27.5161 1.82239Z" fill="white"/>
</mask>
<g mask="url(#mask3_101_8824)">
<path fill-rule="evenodd" clip-rule="evenodd" d="M19.1524 10.0851L23.6243 14.5028L30.8748 7.34013C33.0069 5.2335 35.8493 4.59499 37.1911 5.92063C37.8646 6.58563 38.0371 7.62388 37.7728 8.75938C38.7875 6.46939 38.3498 3.68942 36.4599 1.82239C35.2301 0.607545 33.6091 0 31.9879 0C30.3669 0 28.7461 0.607545 27.5161 1.82239L19.1524 10.0851Z" fill="white"/>
</g>
<mask id="mask4_101_8824" style="mask-type:luminance" maskUnits="userSpaceOnUse" x="0" y="21" width="20" height="17">
<path fill-rule="evenodd" clip-rule="evenodd" d="M5.73653 23.3386L1.84477 27.1832C-0.614902 29.613 -0.614902 33.589 1.84464 36.0189C4.30431 38.4488 8.32879 38.4489 10.7885 36.0188L19.1522 27.7563L14.6802 23.3385C13.4504 22.1237 11.8295 21.5161 10.2085 21.5161C8.58736 21.5161 6.96636 22.1237 5.73653 23.3386Z" fill="white"/>
</mask>
<g mask="url(#mask4_101_8824)">
<path fill-rule="evenodd" clip-rule="evenodd" d="M5.73653 23.3386L1.84477 27.1832C-0.614902 29.613 -0.614902 33.589 1.84464 36.0189C4.30431 38.4488 8.32879 38.4489 10.7885 36.0188L19.1522 27.7563L14.6802 23.3385C13.4504 22.1237 11.8295 21.5161 10.2085 21.5161C8.58736 21.5161 6.96636 22.1237 5.73653 23.3386Z" fill="white" fill-opacity="0.2"/>
</g>
<mask id="mask5_101_8824" style="mask-type:luminance" maskUnits="userSpaceOnUse" x="0" y="23" width="20" height="15">
<path fill-rule="evenodd" clip-rule="evenodd" d="M7.42967 30.5013C5.29751 32.6078 2.45524 33.2465 1.11338 31.9207C0.439999 31.2557 0.267246 30.2174 0.5317 29.0819C-0.48302 31.3719 -0.0453238 34.1519 1.84467 36.0189C4.30421 38.4487 8.32881 38.4487 10.7885 36.0188L19.1521 27.7563L14.6802 23.3385L7.42967 30.5013Z" fill="white"/>
</mask>
<g mask="url(#mask5_101_8824)">
<path fill-rule="evenodd" clip-rule="evenodd" d="M7.42967 30.5013C5.29751 32.6078 2.45524 33.2465 1.11338 31.9207C0.439999 31.2557 0.267246 30.2174 0.5317 29.0819C-0.48302 31.3719 -0.0453238 34.1519 1.84467 36.0189C4.30421 38.4487 8.32881 38.4487 10.7885 36.0188L19.1521 27.7563L14.6802 23.3385L7.42967 30.5013Z" fill="white"/>
</g>
<mask id="mask6_101_8824" style="mask-type:luminance" maskUnits="userSpaceOnUse" x="0" y="0" width="20" height="17">
<path fill-rule="evenodd" clip-rule="evenodd" d="M1.84464 1.82239C-0.614902 4.25221 -0.614902 8.22804 1.84477 10.6581L5.73653 14.5027C8.19619 16.9326 12.2207 16.9326 14.6802 14.5028L19.1522 10.0851L10.7885 1.82251C9.55862 0.607545 7.93749 0 6.31661 0C4.69548 0 3.07448 0.607545 1.84464 1.82239Z" fill="white"/>
</mask>
<g mask="url(#mask6_101_8824)">
<path fill-rule="evenodd" clip-rule="evenodd" d="M1.84464 1.82239C-0.614902 4.25221 -0.614902 8.22804 1.84477 10.6581L5.73653 14.5027C8.19619 16.9326 12.2207 16.9326 14.6802 14.5028L19.1522 10.0851L10.7885 1.82251C9.55862 0.607545 7.93749 0 6.31661 0C4.69548 0 3.07448 0.607545 1.84464 1.82239Z" fill="white" fill-opacity="0.2"/>
</g>
<mask id="mask7_101_8824" style="mask-type:luminance" maskUnits="userSpaceOnUse" x="0" y="0" width="20" height="15">
<path fill-rule="evenodd" clip-rule="evenodd" d="M1.84467 1.82239C-0.0453238 3.68942 -0.48302 6.46939 0.5317 8.75938C0.267246 7.62388 0.439999 6.58563 1.11338 5.92063C2.45524 4.59499 5.29751 5.2335 7.42967 7.34013L14.6802 14.5028L19.1521 10.0851L10.7885 1.82239C9.55865 0.607545 7.93752 0 6.31651 0C4.69551 0 3.0745 0.607545 1.84467 1.82239Z" fill="white"/>
</mask>
<g mask="url(#mask7_101_8824)">
<path fill-rule="evenodd" clip-rule="evenodd" d="M0.5317 8.75938C0.267246 7.62388 0.439999 6.58563 1.11338 5.92063C2.45524 4.59499 5.29751 5.2335 7.42967 7.34013L14.6802 14.5028L19.1521 10.0851L10.7885 1.82239C9.55865 0.607545 7.93752 0 6.31651 0C4.69551 0 3.0745 0.607545 1.84467 1.82239C-0.0453238 3.68942 -0.48302 6.46939 0.5317 8.75938Z" fill="white"/>
</g>
</svg>
