<svg width="200" height="48" viewBox="0 0 200 48" fill="none" xmlns="http://www.w3.org/2000/svg">
<mask id="mask0_715_2639" style="mask-type:luminance" maskUnits="userSpaceOnUse" x="19" y="25" width="20" height="17">
<path fill-rule="evenodd" clip-rule="evenodd" d="M23.6244 27.3385L19.1524 31.7563L27.5161 40.0188C29.9758 42.4489 34.0003 42.4488 36.4598 40.0189V40.0189C38.9194 37.589 38.9195 33.613 36.4597 31.1832V31.1832L32.5681 27.3386C31.3382 26.1237 29.7171 25.5161 28.0961 25.5161V25.5161C26.4751 25.5161 24.8541 26.1237 23.6244 27.3385" fill="white"/>
</mask>
<g mask="url(#mask0_715_2639)">
<path fill-rule="evenodd" clip-rule="evenodd" d="M23.6244 27.3385L19.1524 31.7563L27.5161 40.0188C29.9758 42.4489 34.0003 42.4488 36.4598 40.0189V40.0189C38.9194 37.589 38.9195 33.613 36.4597 31.1832V31.1832L32.5681 27.3386C31.3382 26.1237 29.7171 25.5161 28.0961 25.5161V25.5161C26.4751 25.5161 24.8541 26.1237 23.6244 27.3385" fill="white" fill-opacity="0.2"/>
</g>
<mask id="mask1_715_2639" style="mask-type:luminance" maskUnits="userSpaceOnUse" x="19" y="27" width="20" height="15">
<path fill-rule="evenodd" clip-rule="evenodd" d="M19.1524 31.7563L27.5161 40.0188C29.9758 42.4487 34.0003 42.4487 36.4599 40.0189V40.0189C38.3498 38.1519 38.7875 35.3719 37.7728 33.0819V33.0819C38.0371 34.2174 37.8646 35.2557 37.1911 35.9207V35.9207C35.8494 37.2465 33.007 36.6078 30.8748 34.5013V34.5013L23.6244 27.3385L19.1524 31.7563Z" fill="white"/>
</mask>
<g mask="url(#mask1_715_2639)">
<path fill-rule="evenodd" clip-rule="evenodd" d="M19.1524 31.7563L27.5161 40.0188C29.9758 42.4487 34.0003 42.4487 36.4599 40.0189V40.0189C38.3498 38.1519 38.7875 35.3719 37.7728 33.0819V33.0819C38.0371 34.2174 37.8646 35.2557 37.1911 35.9207V35.9207C35.8494 37.2465 33.007 36.6078 30.8748 34.5013V34.5013L23.6244 27.3385L19.1524 31.7563Z" fill="white"/>
</g>
<mask id="mask2_715_2639" style="mask-type:luminance" maskUnits="userSpaceOnUse" x="19" y="4" width="20" height="17">
<path fill-rule="evenodd" clip-rule="evenodd" d="M27.5161 5.82251L19.1524 14.0851L23.6244 18.5028C26.0839 20.9326 30.1084 20.9326 32.5681 18.5027V18.5027L36.4597 14.6581C38.9195 12.228 38.9194 8.25221 36.4598 5.82239V5.82239C35.23 4.60754 33.609 4 31.988 4V4C30.367 4 28.7461 4.60754 27.5161 5.82251" fill="white"/>
</mask>
<g mask="url(#mask2_715_2639)">
<path fill-rule="evenodd" clip-rule="evenodd" d="M27.5161 5.82251L19.1524 14.0851L23.6244 18.5028C26.0839 20.9326 30.1084 20.9326 32.5681 18.5027V18.5027L36.4597 14.6581C38.9195 12.228 38.9194 8.25221 36.4598 5.82239V5.82239C35.23 4.60754 33.609 4 31.988 4V4C30.367 4 28.7461 4.60754 27.5161 5.82251" fill="white" fill-opacity="0.2"/>
</g>
<mask id="mask3_715_2639" style="mask-type:luminance" maskUnits="userSpaceOnUse" x="19" y="4" width="20" height="15">
<path fill-rule="evenodd" clip-rule="evenodd" d="M27.5161 5.82239L19.1524 14.0851L23.6244 18.5028L30.8748 11.3401C33.007 9.2335 35.8494 8.59499 37.1911 9.92063V9.92063C37.8646 10.5856 38.0371 11.6239 37.7728 12.7594V12.7594C38.7875 10.4694 38.3498 7.68942 36.4599 5.82239V5.82239C35.2301 4.60754 33.6091 4 31.988 4V4C30.367 4 28.7461 4.60754 27.5161 5.82239" fill="white"/>
</mask>
<g mask="url(#mask3_715_2639)">
<path fill-rule="evenodd" clip-rule="evenodd" d="M19.1524 14.0851L23.6244 18.5028L30.8748 11.3401C33.007 9.2335 35.8494 8.59499 37.1911 9.92063C37.8646 10.5856 38.0371 11.6239 37.7728 12.7594C38.7875 10.4694 38.3498 7.68942 36.4599 5.82239C35.2301 4.60754 33.6091 4 31.988 4C30.367 4 28.7461 4.60754 27.5161 5.82239L19.1524 14.0851Z" fill="white"/>
</g>
<mask id="mask4_715_2639" style="mask-type:luminance" maskUnits="userSpaceOnUse" x="0" y="25" width="20" height="17">
<path fill-rule="evenodd" clip-rule="evenodd" d="M5.73653 27.3386L1.84477 31.1832C-0.614902 33.613 -0.614902 37.589 1.84464 40.0189V40.0189C4.30431 42.4488 8.32879 42.4489 10.7885 40.0188V40.0188L19.1522 31.7563L14.6802 27.3385C13.4504 26.1237 11.8295 25.5161 10.2085 25.5161V25.5161C8.58736 25.5161 6.96636 26.1237 5.73653 27.3386" fill="white"/>
</mask>
<g mask="url(#mask4_715_2639)">
<path fill-rule="evenodd" clip-rule="evenodd" d="M5.73653 27.3386L1.84477 31.1832C-0.614902 33.613 -0.614902 37.589 1.84464 40.0189V40.0189C4.30431 42.4488 8.32879 42.4489 10.7885 40.0188V40.0188L19.1522 31.7563L14.6802 27.3385C13.4504 26.1237 11.8295 25.5161 10.2085 25.5161V25.5161C8.58736 25.5161 6.96636 26.1237 5.73653 27.3386" fill="white" fill-opacity="0.2"/>
</g>
<mask id="mask5_715_2639" style="mask-type:luminance" maskUnits="userSpaceOnUse" x="0" y="27" width="20" height="15">
<path fill-rule="evenodd" clip-rule="evenodd" d="M7.42967 34.5013C5.29751 36.6078 2.45524 37.2465 1.11338 35.9207V35.9207C0.439999 35.2557 0.267246 34.2174 0.5317 33.0819V33.0819C-0.48302 35.3719 -0.0453238 38.1519 1.84467 40.0189V40.0189C4.30421 42.4487 8.32881 42.4487 10.7885 40.0188V40.0188L19.1521 31.7563L14.6802 27.3385L7.42967 34.5013Z" fill="white"/>
</mask>
<g mask="url(#mask5_715_2639)">
<path fill-rule="evenodd" clip-rule="evenodd" d="M7.42967 34.5013C5.29751 36.6078 2.45524 37.2465 1.11338 35.9207V35.9207C0.439999 35.2557 0.267246 34.2174 0.5317 33.0819V33.0819C-0.48302 35.3719 -0.0453238 38.1519 1.84467 40.0189V40.0189C4.30421 42.4487 8.32881 42.4487 10.7885 40.0188V40.0188L19.1521 31.7563L14.6802 27.3385L7.42967 34.5013Z" fill="white"/>
</g>
<mask id="mask6_715_2639" style="mask-type:luminance" maskUnits="userSpaceOnUse" x="0" y="4" width="20" height="17">
<path fill-rule="evenodd" clip-rule="evenodd" d="M1.84464 5.82239C-0.614902 8.25221 -0.614902 12.228 1.84477 14.6581V14.6581L5.73653 18.5027C8.19619 20.9326 12.2207 20.9326 14.6802 18.5028V18.5028L19.1522 14.0851L10.7885 5.82251C9.55862 4.60754 7.93749 4 6.31661 4V4C4.69548 4 3.07448 4.60754 1.84464 5.82239" fill="white"/>
</mask>
<g mask="url(#mask6_715_2639)">
<path fill-rule="evenodd" clip-rule="evenodd" d="M1.84464 5.82239C-0.614902 8.25221 -0.614902 12.228 1.84477 14.6581V14.6581L5.73653 18.5027C8.19619 20.9326 12.2207 20.9326 14.6802 18.5028V18.5028L19.1522 14.0851L10.7885 5.82251C9.55862 4.60754 7.93749 4 6.31661 4V4C4.69548 4 3.07448 4.60754 1.84464 5.82239" fill="white" fill-opacity="0.2"/>
</g>
<mask id="mask7_715_2639" style="mask-type:luminance" maskUnits="userSpaceOnUse" x="0" y="4" width="20" height="15">
<path fill-rule="evenodd" clip-rule="evenodd" d="M1.84467 5.82239C-0.0453238 7.68942 -0.48302 10.4694 0.5317 12.7594V12.7594C0.267246 11.6239 0.439999 10.5856 1.11338 9.92063V9.92063C2.45524 8.59499 5.29751 9.2335 7.42967 11.3401V11.3401L14.6802 18.5028L19.1521 14.0851L10.7885 5.82239C9.55865 4.60754 7.93752 4 6.31651 4V4C4.69551 4 3.0745 4.60754 1.84467 5.82239" fill="white"/>
</mask>
<g mask="url(#mask7_715_2639)">
<path fill-rule="evenodd" clip-rule="evenodd" d="M0.5317 12.7594C0.267246 11.6239 0.439999 10.5856 1.11338 9.92063C2.45524 8.59499 5.29751 9.2335 7.42967 11.3401L14.6802 18.5028L19.1521 14.0851L10.7885 5.82239C9.55865 4.60754 7.93752 4 6.31651 4C4.69551 4 3.0745 4.60754 1.84467 5.82239C-0.0453238 7.68942 -0.48302 10.4694 0.5317 12.7594Z" fill="white"/>
</g>
<path d="M49.584 38V11.172H55.55V38H49.584ZM54.144 27.474V22.344H67.558V27.474H54.144ZM54.144 16.302V11.172H68.166V16.302H54.144ZM71.4661 38V19.532H77.2801V38H71.4661ZM74.3921 16.986C73.4801 16.986 72.7201 16.682 72.1121 16.074C71.5294 15.4407 71.2381 14.6807 71.2381 13.794C71.2381 12.882 71.5294 12.122 72.1121 11.514C72.7201 10.906 73.4801 10.602 74.3921 10.602C75.3041 10.602 76.0514 10.906 76.6341 11.514C77.2167 12.122 77.5081 12.882 77.5081 13.794C77.5081 14.6807 77.2167 15.4407 76.6341 16.074C76.0514 16.682 75.3041 16.986 74.3921 16.986ZM83.9963 38V11.894H89.8103V38H83.9963ZM79.8163 24.472V19.532H93.9903V24.472H79.8163ZM97.084 38V11.172H103.05V38H97.084ZM101.644 27.474V22.344H115.058V27.474H101.644ZM101.644 16.302V11.172H115.666V16.302H101.644ZM118.966 38V10.412H124.78V38H118.966ZM136.588 38.38C134.891 38.38 133.371 37.962 132.028 37.126C130.711 36.29 129.66 35.15 128.874 33.706C128.114 32.262 127.734 30.6153 127.734 28.766C127.734 26.9167 128.114 25.27 128.874 23.826C129.66 22.382 130.711 21.242 132.028 20.406C133.371 19.57 134.891 19.152 136.588 19.152C137.83 19.152 138.944 19.3927 139.932 19.874C140.946 20.3553 141.769 21.0267 142.402 21.888C143.036 22.724 143.39 23.6867 143.466 24.776V32.756C143.39 33.8453 143.036 34.8207 142.402 35.682C141.794 36.518 140.984 37.1767 139.97 37.658C138.957 38.1393 137.83 38.38 136.588 38.38ZM137.766 33.136C139.008 33.136 140.008 32.7307 140.768 31.92C141.528 31.084 141.908 30.0327 141.908 28.766C141.908 27.9047 141.731 27.1447 141.376 26.486C141.047 25.8273 140.566 25.3207 139.932 24.966C139.324 24.586 138.615 24.396 137.804 24.396C136.994 24.396 136.272 24.586 135.638 24.966C135.03 25.3207 134.536 25.8273 134.156 26.486C133.802 27.1447 133.624 27.9047 133.624 28.766C133.624 29.602 133.802 30.3493 134.156 31.008C134.511 31.6667 135.005 32.186 135.638 32.566C136.272 32.946 136.981 33.136 137.766 33.136ZM141.68 38V33.022L142.554 28.538L141.68 24.054V19.532H147.38V38H141.68ZM151.474 38V19.532H157.288V38H151.474ZM157.288 27.854L154.856 25.954C155.337 23.8007 156.148 22.1287 157.288 20.938C158.428 19.7473 160.011 19.152 162.038 19.152C162.925 19.152 163.697 19.2913 164.356 19.57C165.04 19.8233 165.635 20.2287 166.142 20.786L162.684 25.156C162.431 24.8773 162.114 24.662 161.734 24.51C161.354 24.358 160.923 24.282 160.442 24.282C159.479 24.282 158.707 24.586 158.124 25.194C157.567 25.7767 157.288 26.6633 157.288 27.854ZM176.291 38.418C174.29 38.418 172.504 38.0127 170.933 37.202C169.388 36.366 168.172 35.2133 167.285 33.744C166.398 32.2747 165.955 30.6153 165.955 28.766C165.955 26.9167 166.386 25.27 167.247 23.826C168.134 22.3567 169.324 21.204 170.819 20.368C172.314 19.532 173.998 19.114 175.873 19.114C177.697 19.114 179.306 19.5067 180.699 20.292C182.092 21.0773 183.182 22.1667 183.967 23.56C184.778 24.9533 185.183 26.5493 185.183 28.348C185.183 28.6773 185.158 29.032 185.107 29.412C185.082 29.7667 185.018 30.1847 184.917 30.666L168.995 30.704V26.714L182.447 26.676L179.939 28.348C179.914 27.284 179.749 26.41 179.445 25.726C179.141 25.0167 178.685 24.4847 178.077 24.13C177.494 23.75 176.772 23.56 175.911 23.56C174.999 23.56 174.201 23.7753 173.517 24.206C172.858 24.6113 172.339 25.194 171.959 25.954C171.604 26.714 171.427 27.6387 171.427 28.728C171.427 29.8173 171.617 30.7547 171.997 31.54C172.402 32.3 172.96 32.8953 173.669 33.326C174.404 33.7313 175.265 33.934 176.253 33.934C177.165 33.934 177.988 33.782 178.723 33.478C179.458 33.1487 180.104 32.6673 180.661 32.034L183.853 35.226C182.941 36.29 181.839 37.088 180.547 37.62C179.255 38.152 177.836 38.418 176.291 38.418Z" fill="white"/>
</svg>
