<svg width="243" height="48" viewBox="0 0 243 48" fill="none" xmlns="http://www.w3.org/2000/svg">
<mask id="mask0_715_2639" style="mask-type:luminance" maskUnits="userSpaceOnUse" x="19" y="25" width="20" height="17">
<path fill-rule="evenodd" clip-rule="evenodd" d="M23.6244 27.3385L19.1524 31.7563L27.5161 40.0188C29.9758 42.4489 34.0003 42.4488 36.4598 40.0189V40.0189C38.9194 37.589 38.9195 33.613 36.4597 31.1832V31.1832L32.5681 27.3386C31.3382 26.1237 29.7171 25.5161 28.0961 25.5161V25.5161C26.4751 25.5161 24.8541 26.1237 23.6244 27.3385" fill="white"/>
</mask>
<g mask="url(#mask0_715_2639)">
<path fill-rule="evenodd" clip-rule="evenodd" d="M23.6244 27.3385L19.1524 31.7563L27.5161 40.0188C29.9758 42.4489 34.0003 42.4488 36.4598 40.0189V40.0189C38.9194 37.589 38.9195 33.613 36.4597 31.1832V31.1832L32.5681 27.3386C31.3382 26.1237 29.7171 25.5161 28.0961 25.5161V25.5161C26.4751 25.5161 24.8541 26.1237 23.6244 27.3385" fill="white" fill-opacity="0.2"/>
</g>
<mask id="mask1_715_2639" style="mask-type:luminance" maskUnits="userSpaceOnUse" x="19" y="27" width="20" height="15">
<path fill-rule="evenodd" clip-rule="evenodd" d="M19.1524 31.7563L27.5161 40.0188C29.9758 42.4487 34.0003 42.4487 36.4599 40.0189V40.0189C38.3498 38.1519 38.7875 35.3719 37.7728 33.0819V33.0819C38.0371 34.2174 37.8646 35.2557 37.1911 35.9207V35.9207C35.8494 37.2465 33.007 36.6078 30.8748 34.5013V34.5013L23.6244 27.3385L19.1524 31.7563Z" fill="white"/>
</mask>
<g mask="url(#mask1_715_2639)">
<path fill-rule="evenodd" clip-rule="evenodd" d="M19.1524 31.7563L27.5161 40.0188C29.9758 42.4487 34.0003 42.4487 36.4599 40.0189V40.0189C38.3498 38.1519 38.7875 35.3719 37.7728 33.0819V33.0819C38.0371 34.2174 37.8646 35.2557 37.1911 35.9207V35.9207C35.8494 37.2465 33.007 36.6078 30.8748 34.5013V34.5013L23.6244 27.3385L19.1524 31.7563Z" fill="white"/>
</g>
<mask id="mask2_715_2639" style="mask-type:luminance" maskUnits="userSpaceOnUse" x="19" y="4" width="20" height="17">
<path fill-rule="evenodd" clip-rule="evenodd" d="M27.5161 5.82251L19.1524 14.0851L23.6244 18.5028C26.0839 20.9326 30.1084 20.9326 32.5681 18.5027V18.5027L36.4597 14.6581C38.9195 12.228 38.9194 8.25221 36.4598 5.82239V5.82239C35.23 4.60754 33.609 4 31.988 4V4C30.367 4 28.7461 4.60754 27.5161 5.82251" fill="white"/>
</mask>
<g mask="url(#mask2_715_2639)">
<path fill-rule="evenodd" clip-rule="evenodd" d="M27.5161 5.82251L19.1524 14.0851L23.6244 18.5028C26.0839 20.9326 30.1084 20.9326 32.5681 18.5027V18.5027L36.4597 14.6581C38.9195 12.228 38.9194 8.25221 36.4598 5.82239V5.82239C35.23 4.60754 33.609 4 31.988 4V4C30.367 4 28.7461 4.60754 27.5161 5.82251" fill="white" fill-opacity="0.2"/>
</g>
<mask id="mask3_715_2639" style="mask-type:luminance" maskUnits="userSpaceOnUse" x="19" y="4" width="20" height="15">
<path fill-rule="evenodd" clip-rule="evenodd" d="M27.5161 5.82239L19.1524 14.0851L23.6244 18.5028L30.8748 11.3401C33.007 9.2335 35.8494 8.59499 37.1911 9.92063V9.92063C37.8646 10.5856 38.0371 11.6239 37.7728 12.7594V12.7594C38.7875 10.4694 38.3498 7.68942 36.4599 5.82239V5.82239C35.2301 4.60754 33.6091 4 31.988 4V4C30.367 4 28.7461 4.60754 27.5161 5.82239" fill="white"/>
</mask>
<g mask="url(#mask3_715_2639)">
<path fill-rule="evenodd" clip-rule="evenodd" d="M19.1524 14.0851L23.6244 18.5028L30.8748 11.3401C33.007 9.2335 35.8494 8.59499 37.1911 9.92063C37.8646 10.5856 38.0371 11.6239 37.7728 12.7594C38.7875 10.4694 38.3498 7.68942 36.4599 5.82239C35.2301 4.60754 33.6091 4 31.988 4C30.367 4 28.7461 4.60754 27.5161 5.82239L19.1524 14.0851Z" fill="white"/>
</g>
<mask id="mask4_715_2639" style="mask-type:luminance" maskUnits="userSpaceOnUse" x="0" y="25" width="20" height="17">
<path fill-rule="evenodd" clip-rule="evenodd" d="M5.73653 27.3386L1.84477 31.1832C-0.614902 33.613 -0.614902 37.589 1.84464 40.0189V40.0189C4.30431 42.4488 8.32879 42.4489 10.7885 40.0188V40.0188L19.1522 31.7563L14.6802 27.3385C13.4504 26.1237 11.8295 25.5161 10.2085 25.5161V25.5161C8.58736 25.5161 6.96636 26.1237 5.73653 27.3386" fill="white"/>
</mask>
<g mask="url(#mask4_715_2639)">
<path fill-rule="evenodd" clip-rule="evenodd" d="M5.73653 27.3386L1.84477 31.1832C-0.614902 33.613 -0.614902 37.589 1.84464 40.0189V40.0189C4.30431 42.4488 8.32879 42.4489 10.7885 40.0188V40.0188L19.1522 31.7563L14.6802 27.3385C13.4504 26.1237 11.8295 25.5161 10.2085 25.5161V25.5161C8.58736 25.5161 6.96636 26.1237 5.73653 27.3386" fill="white" fill-opacity="0.2"/>
</g>
<mask id="mask5_715_2639" style="mask-type:luminance" maskUnits="userSpaceOnUse" x="0" y="27" width="20" height="15">
<path fill-rule="evenodd" clip-rule="evenodd" d="M7.42967 34.5013C5.29751 36.6078 2.45524 37.2465 1.11338 35.9207V35.9207C0.439999 35.2557 0.267246 34.2174 0.5317 33.0819V33.0819C-0.48302 35.3719 -0.0453238 38.1519 1.84467 40.0189V40.0189C4.30421 42.4487 8.32881 42.4487 10.7885 40.0188V40.0188L19.1521 31.7563L14.6802 27.3385L7.42967 34.5013Z" fill="white"/>
</mask>
<g mask="url(#mask5_715_2639)">
<path fill-rule="evenodd" clip-rule="evenodd" d="M7.42967 34.5013C5.29751 36.6078 2.45524 37.2465 1.11338 35.9207V35.9207C0.439999 35.2557 0.267246 34.2174 0.5317 33.0819V33.0819C-0.48302 35.3719 -0.0453238 38.1519 1.84467 40.0189V40.0189C4.30421 42.4487 8.32881 42.4487 10.7885 40.0188V40.0188L19.1521 31.7563L14.6802 27.3385L7.42967 34.5013Z" fill="white"/>
</g>
<mask id="mask6_715_2639" style="mask-type:luminance" maskUnits="userSpaceOnUse" x="0" y="4" width="20" height="17">
<path fill-rule="evenodd" clip-rule="evenodd" d="M1.84464 5.82239C-0.614902 8.25221 -0.614902 12.228 1.84477 14.6581V14.6581L5.73653 18.5027C8.19619 20.9326 12.2207 20.9326 14.6802 18.5028V18.5028L19.1522 14.0851L10.7885 5.82251C9.55862 4.60754 7.93749 4 6.31661 4V4C4.69548 4 3.07448 4.60754 1.84464 5.82239" fill="white"/>
</mask>
<g mask="url(#mask6_715_2639)">
<path fill-rule="evenodd" clip-rule="evenodd" d="M1.84464 5.82239C-0.614902 8.25221 -0.614902 12.228 1.84477 14.6581V14.6581L5.73653 18.5027C8.19619 20.9326 12.2207 20.9326 14.6802 18.5028V18.5028L19.1522 14.0851L10.7885 5.82251C9.55862 4.60754 7.93749 4 6.31661 4V4C4.69548 4 3.07448 4.60754 1.84464 5.82239" fill="white" fill-opacity="0.2"/>
</g>
<mask id="mask7_715_2639" style="mask-type:luminance" maskUnits="userSpaceOnUse" x="0" y="4" width="20" height="15">
<path fill-rule="evenodd" clip-rule="evenodd" d="M1.84467 5.82239C-0.0453238 7.68942 -0.48302 10.4694 0.5317 12.7594V12.7594C0.267246 11.6239 0.439999 10.5856 1.11338 9.92063V9.92063C2.45524 8.59499 5.29751 9.2335 7.42967 11.3401V11.3401L14.6802 18.5028L19.1521 14.0851L10.7885 5.82239C9.55865 4.60754 7.93752 4 6.31651 4V4C4.69551 4 3.0745 4.60754 1.84467 5.82239" fill="white"/>
</mask>
<g mask="url(#mask7_715_2639)">
<path fill-rule="evenodd" clip-rule="evenodd" d="M0.5317 12.7594C0.267246 11.6239 0.439999 10.5856 1.11338 9.92063C2.45524 8.59499 5.29751 9.2335 7.42967 11.3401L14.6802 18.5028L19.1521 14.0851L10.7885 5.82239C9.55865 4.60754 7.93752 4 6.31651 4C4.69551 4 3.0745 4.60754 1.84467 5.82239C-0.0453238 7.68942 -0.48302 10.4694 0.5317 12.7594Z" fill="white"/>
</g>
<path d="M49.584 38V11.172H55.55V38H49.584ZM54.144 27.474V22.344H67.558V27.474H54.144ZM54.144 16.302V11.172H68.166V16.302H54.144ZM71.4661 38V10.412H77.2801V38H71.4661ZM90.4943 38.418C88.4929 38.418 86.7069 38.0127 85.1363 37.202C83.5909 36.366 82.3749 35.2133 81.4883 33.744C80.6016 32.2747 80.1583 30.6153 80.1583 28.766C80.1583 26.9167 80.5889 25.27 81.4503 23.826C82.3369 22.3567 83.5276 21.204 85.0223 20.368C86.5169 19.532 88.2016 19.114 90.0763 19.114C91.9003 19.114 93.5089 19.5067 94.9023 20.292C96.2956 21.0773 97.3849 22.1667 98.1703 23.56C98.9809 24.9533 99.3863 26.5493 99.3863 28.348C99.3863 28.6773 99.3609 29.032 99.3103 29.412C99.2849 29.7667 99.2216 30.1847 99.1203 30.666L83.1983 30.704V26.714L96.6503 26.676L94.1423 28.348C94.1169 27.284 93.9523 26.41 93.6483 25.726C93.3443 25.0167 92.8883 24.4847 92.2803 24.13C91.6976 23.75 90.9756 23.56 90.1143 23.56C89.2023 23.56 88.4043 23.7753 87.7203 24.206C87.0616 24.6113 86.5423 25.194 86.1623 25.954C85.8076 26.714 85.6303 27.6387 85.6303 28.728C85.6303 29.8173 85.8203 30.7547 86.2003 31.54C86.6056 32.3 87.1629 32.8953 87.8723 33.326C88.6069 33.7313 89.4683 33.934 90.4563 33.934C91.3683 33.934 92.1916 33.782 92.9263 33.478C93.6609 33.1487 94.3069 32.6673 94.8643 32.034L98.0563 35.226C97.1443 36.29 96.0423 37.088 94.7503 37.62C93.4583 38.152 92.0396 38.418 90.4943 38.418ZM113.148 38L108.702 30.818L107.448 30.02L100.19 19.532H106.992L111.134 26.258L112.35 27.018L119.874 38H113.148ZM99.8482 38L107.41 27.246L110.716 30.97L106.194 38H99.8482ZM112.312 29.982L109.006 26.258L113.186 19.532H119.494L112.312 29.982ZM122.615 38V11.172H126.871L137.435 27.626H135.269L145.795 11.172H150.089V38H144.123V21.242L145.187 21.508L138.309 32.224H134.357L127.517 21.508L128.543 21.242V38H122.615ZM163.594 38.418C161.694 38.418 159.972 38 158.426 37.164C156.906 36.3027 155.703 35.1373 154.816 33.668C153.93 32.1987 153.486 30.552 153.486 28.728C153.486 26.904 153.93 25.27 154.816 23.826C155.703 22.382 156.906 21.242 158.426 20.406C159.946 19.5447 161.669 19.114 163.594 19.114C165.52 19.114 167.242 19.532 168.762 20.368C170.282 21.204 171.486 22.3567 172.372 23.826C173.259 25.27 173.702 26.904 173.702 28.728C173.702 30.552 173.259 32.1987 172.372 33.668C171.486 35.1373 170.282 36.3027 168.762 37.164C167.242 38 165.52 38.418 163.594 38.418ZM163.594 33.136C164.43 33.136 165.165 32.9587 165.798 32.604C166.432 32.224 166.913 31.7047 167.242 31.046C167.597 30.362 167.774 29.5893 167.774 28.728C167.774 27.8667 167.597 27.1193 167.242 26.486C166.888 25.8273 166.394 25.3207 165.76 24.966C165.152 24.586 164.43 24.396 163.594 24.396C162.784 24.396 162.062 24.586 161.428 24.966C160.795 25.3207 160.301 25.8273 159.946 26.486C159.592 27.1447 159.414 27.9047 159.414 28.766C159.414 29.602 159.592 30.362 159.946 31.046C160.301 31.7047 160.795 32.224 161.428 32.604C162.062 32.9587 162.784 33.136 163.594 33.136ZM178.848 38V11.894H184.662V38H178.848ZM174.668 24.472V19.532H188.842V24.472H174.668ZM191.404 38V19.532H197.218V38H191.404ZM194.33 16.986C193.418 16.986 192.658 16.682 192.05 16.074C191.467 15.4407 191.176 14.6807 191.176 13.794C191.176 12.882 191.467 12.122 192.05 11.514C192.658 10.906 193.418 10.602 194.33 10.602C195.242 10.602 195.989 10.906 196.572 11.514C197.154 12.122 197.446 12.882 197.446 13.794C197.446 14.6807 197.154 15.4407 196.572 16.074C195.989 16.682 195.242 16.986 194.33 16.986ZM210.204 38.418C208.304 38.418 206.581 38 205.036 37.164C203.516 36.3027 202.312 35.1373 201.426 33.668C200.539 32.1987 200.096 30.552 200.096 28.728C200.096 26.904 200.539 25.27 201.426 23.826C202.312 22.382 203.516 21.242 205.036 20.406C206.556 19.5447 208.278 19.114 210.204 19.114C212.129 19.114 213.852 19.532 215.372 20.368C216.892 21.204 218.095 22.3567 218.982 23.826C219.868 25.27 220.312 26.904 220.312 28.728C220.312 30.552 219.868 32.1987 218.982 33.668C218.095 35.1373 216.892 36.3027 215.372 37.164C213.852 38 212.129 38.418 210.204 38.418ZM210.204 33.136C211.04 33.136 211.774 32.9587 212.408 32.604C213.041 32.224 213.522 31.7047 213.852 31.046C214.206 30.362 214.384 29.5893 214.384 28.728C214.384 27.8667 214.206 27.1193 213.852 26.486C213.497 25.8273 213.003 25.3207 212.37 24.966C211.762 24.586 211.04 24.396 210.204 24.396C209.393 24.396 208.671 24.586 208.038 24.966C207.404 25.3207 206.91 25.8273 206.556 26.486C206.201 27.1447 206.024 27.9047 206.024 28.766C206.024 29.602 206.201 30.362 206.556 31.046C206.91 31.7047 207.404 32.224 208.038 32.604C208.671 32.9587 209.393 33.136 210.204 33.136ZM235.404 38V27.474C235.404 26.5113 235.1 25.7387 234.492 25.156C233.91 24.548 233.162 24.244 232.25 24.244C231.617 24.244 231.06 24.3833 230.578 24.662C230.097 24.9153 229.717 25.2953 229.438 25.802C229.16 26.2833 229.02 26.8407 229.02 27.474L226.778 26.372C226.778 24.928 227.095 23.6613 227.728 22.572C228.362 21.4827 229.236 20.6467 230.35 20.064C231.49 19.456 232.77 19.152 234.188 19.152C235.556 19.152 236.76 19.4813 237.798 20.14C238.862 20.7733 239.698 21.622 240.306 22.686C240.914 23.75 241.218 24.9153 241.218 26.182V38H235.404ZM223.206 38V19.532H229.02V38H223.206Z" fill="white"/>
</svg>
