<svg width="146" height="256" viewBox="0 0 146 256" fill="none" xmlns="http://www.w3.org/2000/svg">
<path d="M75.5573 128.881C73.7312 128.797 72.0632 128.719 70.3109 128.635C71.9122 134.478 70.5637 140.181 69.6858 145.933C68.6991 152.398 68.2601 159.007 65.679 165.082C64.1374 168.71 64.1796 172.457 63.6704 176.183C63.5369 177.159 63.4035 178.195 62.9716 179.059C61.2017 182.602 60.9067 186.335 60.8189 190.24C60.6082 199.837 59.0034 209.238 54.9229 217.999C52.089 224.088 52.2365 230.258 53.6482 236.499C54.354 239.624 54.2276 242.388 52.8089 245.281C52.0925 246.746 52.082 248.554 51.7484 250.208C51.0039 253.927 48.9672 255.619 45.2062 255.184C42.7867 254.903 40.3952 254.236 38.046 253.548C36.3288 253.045 35.6194 250.886 36.9468 249.193C40.6832 244.424 42.0808 238.62 44.4196 233.24C44.8972 232.141 45.0727 230.729 44.8761 229.546C43.8542 223.393 42.6673 217.272 41.5365 211.137C40.7008 206.607 41.4663 202.183 42.3512 197.748C43.1168 193.916 43.6786 190.047 44.388 186.201C44.9779 183.009 45.7505 179.852 46.2667 176.65C47.0954 171.512 47.0603 166.441 45.1184 161.462C43.5311 157.388 43.2467 153.041 43.2046 148.718C43.1168 139.514 43.7313 130.366 46.0841 121.415C46.4704 119.947 46.8742 118.462 47.5028 117.089C49.8521 111.955 50.6352 106.631 50.421 100.977C50.291 97.5254 51.2322 94.0419 51.5658 90.5618C52.0714 85.2873 52.3313 80.0234 49.1217 75.3318C48.9285 75.0474 48.7284 74.77 48.4088 74.317C47.7346 76.4977 47.2464 78.5626 46.4458 80.4975C45.7856 82.0882 44.7286 83.514 43.8963 85.038C43.5171 85.7333 43.0852 86.4673 42.9763 87.2293C42.0106 93.9927 39.254 99.5376 33.5089 103.706C28.6664 107.218 25.1898 111.948 22.2541 117.338C20.0453 121.398 18.8057 125.464 17.7171 129.825C16.8848 133.169 15.0833 136.276 13.6049 139.437C13.3837 139.911 12.5514 140.101 12.0001 140.42C11.8842 139.806 11.5787 139.152 11.6946 138.583C11.9439 137.354 12.4075 136.167 12.5234 134.861C11.7684 136.368 11.0274 137.881 10.2478 139.377C9.89665 140.048 9.53144 140.726 9.07492 141.323C8.05655 142.657 7.21375 142.552 6.59219 141.34C5.76345 141.646 4.88554 142.288 4.2394 142.102C3.74777 141.962 3.55111 140.778 3.21049 140.02C1.63025 140.48 0.875245 139.925 1.53894 138.159C2.44846 135.732 3.80746 133.478 4.94172 131.132C5.27884 130.433 5.50359 129.678 5.81963 128.849C4.05328 129.144 2.71534 129.443 1.36687 129.552C0.920896 129.587 0.257196 129.243 0.0324513 128.867C-0.111526 128.632 0.250173 127.845 0.594314 127.599C3.56516 125.478 5.98117 122.57 9.62976 121.38C10.4093 121.127 11.0801 120.19 11.5647 119.42C15.8383 112.625 18.897 105.255 21.4815 97.694C23.1531 92.8022 24.5753 87.6015 28.7085 84.3287C32.0516 81.6774 31.7215 78.2325 32.336 74.9245C32.9576 71.5779 34.2112 68.579 36.1005 65.7767C36.4973 65.1902 36.7115 64.2702 36.5886 63.5749C35.9039 59.6699 35.6651 55.8001 36.9714 51.9724C38.815 46.5785 42.9798 43.2706 48.9707 43.2355C53.1284 43.2144 56.7665 42.2101 60.1763 39.9556C62.0164 38.737 63.1893 37.1989 63.7301 34.9971C64.471 31.9771 65.3735 29.0168 64.3622 25.9055C64.169 25.3085 63.9654 24.6202 63.5369 24.2094C62.0094 22.738 61.8724 20.789 61.5494 18.8998C61.4932 18.5802 61.5318 18.0359 61.7285 17.9165C63.2771 16.9649 62.4975 15.7112 62.2095 14.5454C61.4159 11.3252 61.4089 8.20333 63.0804 5.20439C63.407 4.62146 63.4351 3.87699 63.6563 3.22383C64.1796 1.66466 65.1628 1.07821 66.88 0.537421C70.5181 -0.610886 73.7172 0.281071 77.0252 1.3451C82.9423 3.24841 85.137 8.97589 84.2732 13.9659C84.0239 15.3987 84.0063 16.6945 84.4101 18.2396C84.965 20.3606 85.0668 22.9241 82.8334 24.6694C82.3172 25.0733 81.7799 25.7405 81.6921 26.3515C81.348 28.6938 81.1022 30.9869 81.5411 33.438C82.3383 37.8942 85.2319 40.1136 88.9682 41.7641C91.0647 42.6912 93.1506 43.3759 95.542 43.1477C96.9537 43.0142 98.4532 43.3584 99.8578 43.706C108.647 45.8903 110.284 53.2823 109.459 60.741C109.188 63.1956 109.072 65.2113 110.639 67.4061C113.343 71.1881 113.662 75.7884 114.119 80.2762C114.171 80.7995 114.35 81.4772 114.719 81.7792C119.93 86.0494 122.202 91.9595 124.496 98.0522C127.235 105.339 129.173 113.019 133.689 119.543C134.444 120.632 135.684 121.422 136.793 122.219C139.388 124.08 142.057 125.833 144.649 127.701C144.965 127.929 145.144 128.61 145.067 129.021C145.021 129.267 144.336 129.59 143.975 129.552C142.651 129.411 141.341 129.134 139.905 128.891C139.051 129.948 139.985 130.714 140.435 131.599C141.485 133.664 142.538 135.732 143.451 137.857C143.68 138.39 143.564 139.279 143.244 139.76C143.062 140.03 142.138 139.809 141.79 139.809C141.485 140.592 141.306 141.54 140.765 142.193C140.565 142.436 139.522 141.983 138.479 141.765C136.941 142.527 136.41 142.464 135.287 140.557C134.286 138.861 133.51 137.031 132.365 135.342C132.72 136.413 133.183 137.463 133.387 138.559C133.496 139.138 133.152 139.799 133.011 140.424C132.467 140.115 131.677 139.946 131.413 139.479C128.878 134.984 126.792 130.317 126.262 125.095C126.202 124.519 126.083 123.933 125.879 123.396C122.978 115.698 119.189 108.517 112.233 103.73C106.235 99.6043 103.643 93.796 102.671 86.9343C102.607 86.4883 102.593 85.9019 102.312 85.6385C99.454 82.9521 98.8184 79.2614 97.7473 75.7673C97.6174 75.3389 97.484 74.914 97.3084 74.331C94.8011 77.5126 93.7335 81.0102 93.9021 84.7711C94.0812 88.7885 94.7203 92.7882 94.9907 96.8055C95.2154 100.11 95.1768 103.428 95.2997 106.74C95.3419 107.829 95.3208 108.984 95.679 109.985C98.4181 117.637 100.841 125.387 101.677 133.495C102.397 140.511 103.348 147.563 101.954 154.621C101.424 157.297 101.01 160.012 100.255 162.624C98.7938 167.681 98.699 172.745 99.6331 177.879C100.883 184.748 102.032 191.637 103.369 198.489C104.764 205.635 104.051 212.693 102.794 219.748C102.14 223.414 101.396 227.066 100.718 230.729C100.648 231.115 100.644 231.561 100.771 231.926C102.056 235.67 103.257 239.452 104.736 243.122C105.42 244.821 106.66 246.3 107.661 247.869C108.1 248.558 108.676 249.172 109.016 249.902C109.954 251.922 108.834 253.688 106.681 253.829C104.992 253.937 103.299 254.095 101.635 254.376C96.434 255.251 93.881 253.151 93.5825 247.859C93.5088 246.573 93.1541 245.204 92.5642 244.066C91.4475 241.914 91.2227 239.814 91.904 237.492C94.0566 230.174 93.3824 223.088 90.0428 216.222C87.374 210.734 86.1027 204.887 85.7446 198.808C85.4742 194.261 85.0984 189.72 84.7402 185.179C84.6946 184.611 84.5155 184.035 84.2978 183.501C82.9282 180.186 81.8291 176.801 81.8115 173.18C81.7904 169.05 79.7748 165.426 78.9952 161.497C78.2613 157.785 77.6748 154.045 77.0076 150.319C76.4036 146.938 75.7504 143.567 75.1605 140.185C74.5178 136.41 74.4722 132.642 75.5573 128.881ZM77.9171 6.07879C79.255 4.77246 80.2453 5.84702 80.6562 6.83379C81.4042 8.63175 81.8431 10.5807 82.2364 12.4981C82.5349 13.9589 82.563 15.4759 82.714 16.9684C83.2724 16.2941 83.455 15.6375 83.5603 14.9738C84.5155 9.02505 82.4858 3.68385 75.6275 1.53121C72.8393 0.656817 70.2161 1.22219 67.5824 1.71733C66.1391 1.98773 65.2576 3.31162 64.3552 4.58283C62.2798 7.50803 61.7987 12.9862 63.7828 16.3995C63.86 15.9816 63.8425 15.5708 63.7898 15.1634C63.4772 12.6596 63.0839 10.0821 64.8784 7.98561C65.4859 7.27626 66.6553 6.78112 67.614 6.68981C69.3276 6.52828 71.0835 6.87242 72.8077 6.77409C74.5354 6.67577 76.2456 6.293 77.9663 6.03314C74.7601 7.41321 71.4276 8.07691 67.9792 7.36054C66.585 7.06907 65.6334 7.43077 65.0891 8.57205C64.5764 9.6431 64.1655 10.8406 64.0707 12.0099C63.9619 13.383 64.32 14.7877 64.3306 16.1783C64.3376 16.9508 64.0461 17.7269 63.8916 18.4749C63.2455 18.3941 62.8135 18.3379 61.8865 18.222C62.4132 19.9603 62.7819 21.4527 63.3227 22.8785C63.9092 24.4201 65.0645 25.8528 65.2436 27.4155C65.514 29.7964 66.887 30.9272 68.7763 31.7348C71.7858 33.0236 74.8901 32.985 77.6818 31.3626C79.0127 30.5865 80.2278 29.1187 80.8107 27.6894C81.4007 26.2391 81.657 24.7748 82.9879 23.6791C84.5014 22.436 83.9396 20.5573 84.0309 18.9068C84.0941 17.8042 83.3602 17.9868 82.6648 18.0324C82.563 18.0394 82.3593 17.6812 82.3277 17.4741C82.1627 16.3293 82.096 15.1669 81.8888 14.0291C81.5025 11.9257 81.1232 9.81166 80.5824 7.74331C80.2559 6.46858 79.3042 5.82244 77.9171 6.07879ZM62.7363 172.404C63.6528 169.539 64.5342 166.915 65.3244 164.268C68.0354 155.169 69.0678 145.758 70.2863 136.392C70.6199 133.825 70.8552 130.984 69.1907 128.737C65.7844 124.137 62.2271 119.645 58.5926 115.221C57.4513 113.833 55.8675 112.812 54.2416 111.414C54.2416 112.812 54.2065 113.742 54.2487 114.666C54.505 120.495 53.3005 125.808 48.9812 130.089C48.5703 130.496 48.3702 131.199 48.2367 131.799C47.2816 136.031 47.7451 140.252 48.1805 144.515C49.0585 153.174 52.5806 160.798 57.0615 168.05C58.3889 170.213 60.531 171.596 62.7363 172.404ZM91.595 111.927C91.4369 111.8 91.2789 111.674 91.1174 111.551C88.5258 114.286 85.8534 116.952 83.3707 119.782C81.643 121.752 80.4209 124.221 78.5281 125.987C75.5468 128.768 75.1078 132.259 75.473 135.785C76.1578 142.387 77.0638 148.988 78.349 155.499C79.4693 161.163 81.2426 166.701 82.7737 172.478C83.2829 172.267 84.0309 172.151 84.4944 171.726C86.3591 170.002 88.603 168.457 89.8672 166.347C95.4297 157.055 98.534 146.997 98.0353 136.041C97.8913 132.902 97.5331 129.843 94.8854 127.476C93.7335 126.447 93.0137 124.797 92.4167 123.304C90.9488 119.631 90.9874 115.789 91.595 111.927ZM45.4239 188.329C45.287 188.308 45.1465 188.291 45.0095 188.27C44.7181 189.836 44.3985 191.399 44.1386 192.968C43.482 196.933 42.6673 200.884 42.2564 204.873C41.6419 210.843 43.6259 216.538 44.5284 222.347C45.0727 225.862 45.5644 229.384 46.0174 232.91C46.0806 233.405 45.7821 233.946 45.6522 234.462C44.4828 233.837 44.6127 235.02 44.4161 235.463C42.295 240.27 41.6032 245.752 37.6351 249.678C37.5965 249.716 37.5859 249.783 37.5578 249.836C36.859 251.325 37.2558 252.266 38.8536 252.603C41.0765 253.074 43.3064 253.583 45.5609 253.825C48.8021 254.173 50.1716 253.123 51.0109 249.98C51.19 249.306 51.2076 248.589 51.3902 247.915C51.8326 246.257 52.377 244.621 52.7878 242.956C53.0723 241.801 53.4585 240.583 53.3532 239.434C53.1636 237.355 52.4928 235.322 52.2821 233.243C51.8081 228.583 51.6255 223.941 53.6306 219.485C54.7543 216.988 55.7165 214.414 56.605 211.822C58.8629 205.255 59.5758 198.404 60.1307 191.539C60.229 190.313 60.1447 189.074 60.1447 187.841C58.3713 191.002 56.6331 194.11 55.3618 197.403C53.0898 203.285 52.4015 209.508 52.103 215.766C51.9134 219.734 51.801 223.709 51.5658 227.674C51.5377 228.144 50.9618 228.583 50.6387 229.04C50.291 228.632 49.7432 228.271 49.6273 227.804C49.234 226.22 49.0971 224.573 48.6792 223C46.6073 215.183 45.1114 207.299 45.3993 199.152C45.5293 195.553 45.4239 191.939 45.4239 188.329ZM101.024 189.79C100.848 189.797 100.673 189.801 100.497 189.808C100.497 191.676 100.599 193.551 100.479 195.412C100.09 201.47 99.8894 207.556 99.0993 213.564C98.4497 218.512 96.9994 223.351 96.0618 228.267C95.8405 229.433 95.4964 229.921 94.1163 229.83C94.4921 215.334 93.7476 201.02 85.6287 187.704C85.8183 190.366 86.0606 192.561 86.1203 194.759C86.3205 202.327 87.9218 209.617 91.0226 216.468C94.2111 223.516 94.7905 230.588 92.5993 237.945C92.1393 239.494 91.8724 241.067 92.7924 242.507C94.0285 244.442 94.485 246.51 94.5939 248.796C94.7414 251.901 96.4445 253.744 98.836 253.593C101.452 253.432 104.068 253.123 106.656 252.691C108.742 252.343 109.266 251.167 107.91 249.579C105.066 246.247 103.362 242.419 102.281 238.24C101.989 237.117 101.607 236.007 101.136 234.946C100.96 234.553 100.413 234.321 99.8543 233.868C99.4997 228.657 101.08 223.414 102.19 218.136C103.559 211.636 103.742 205.178 102.622 198.661C102.112 195.707 101.557 192.751 101.024 189.79ZM85.1195 69.2848C87.374 88.655 84.2978 107.144 78.4017 125.215C78.4333 125.187 78.6229 125.078 78.7423 124.909C83.1073 118.729 87.8515 112.913 94.1268 108.524C94.3621 108.359 94.5377 107.955 94.5517 107.653C94.6501 105.56 94.8924 103.45 94.7238 101.374C94.3762 97.1356 93.6914 92.9216 93.3473 88.6796C92.9891 84.2865 92.961 79.753 95.4999 75.978C97.8667 72.4593 96.7255 69.0074 96.5499 65.2745C92.7327 67.0198 89.4107 69.3761 85.1195 69.2848ZM60.7452 68.5754C63.1296 68.1576 66.1953 67.7572 69.1872 67.0514C71.3925 66.5317 71.8174 65.58 71.5997 63.3115C71.3644 60.8709 71.1642 58.4268 70.9676 55.9827C70.8201 54.1321 70.4162 52.3833 68.8711 51.1612C67.5016 50.0761 66.1391 48.9594 64.6747 48.0113C61.6336 46.0413 58.9999 46.1361 56.0923 48.3203C55.0774 49.0823 54.1117 49.9989 53.3778 51.0243C51.1373 54.1531 49.0374 57.3839 46.8391 60.5443C46.2913 61.3344 46.3369 61.8788 47.1165 62.4476C48.012 63.1008 48.7951 63.9225 49.7327 64.5019C52.9177 66.4614 56.1801 68.2664 60.7452 68.5754ZM99.6612 61.8085C96.7325 57.6262 94.2919 53.7001 91.4053 50.1393C87.9639 45.8938 84.4172 45.6058 79.8871 48.682C78.9741 49.3036 78.1559 50.0691 77.2499 50.7012C75.7575 51.7442 74.9603 53.1804 74.7918 54.9503C74.5073 57.9703 74.2404 60.9903 74.0613 64.0173C73.9841 65.3202 74.423 66.3701 75.912 66.7915C81.3655 68.3331 86.8191 69.6008 92.1674 66.5668C94.622 65.1727 96.9432 63.5433 99.6612 61.8085ZM49.1603 65.6011C48.9777 67.694 48.7248 69.7167 48.6651 71.7429C48.6441 72.512 48.8758 73.432 49.3148 74.0536C52.7141 78.8259 52.7106 84.1952 52.2611 89.6839C51.8081 95.1972 51.3621 100.714 51.0917 106.241C51.046 107.158 51.6746 108.401 52.398 109.012C56.468 112.432 60.6995 115.663 63.6282 120.225C63.7617 120.435 64.0005 120.579 64.3762 120.927C63.7266 118.49 63.0172 116.341 62.5993 114.139C61.7179 109.507 61.3351 104.756 60.1236 100.219C58.1852 92.9743 58.5364 85.6596 58.6663 78.3308C58.719 75.374 59.0456 72.4172 59.2282 69.7167C55.9378 68.3683 52.6719 67.0338 49.1603 65.6011ZM31.6793 82.4535C28.6804 84.6588 25.8676 88.0791 24.3962 91.8155C21.4605 99.2637 18.6722 106.768 15.8313 114.223C17.5415 115.442 19.3359 116.72 21.2112 118.054C21.3832 117.802 21.5869 117.594 21.6887 117.345C24.3857 110.82 29.0772 105.978 34.6291 101.82C37.1399 99.9379 39.1802 97.6237 40.3215 94.6318C41.3223 92.0016 42.2178 89.3503 42.2986 86.2495C39.1381 87.5664 36.248 88.7674 32.9225 90.151C32.487 87.447 32.0867 84.9748 31.6793 82.4535ZM113.999 82.327C113.701 84.5815 113.465 86.4848 113.192 88.3776C112.995 89.7225 112.38 90.1369 111.021 89.5048C108.574 88.3706 106.059 87.3803 103.278 86.2039C104.314 92.2615 105.726 97.6694 110.691 101.353C111.724 102.119 112.763 102.881 113.711 103.741C118.206 107.843 122.515 112.099 124.292 118.29C126.167 116.878 127.919 115.558 129.714 114.209C129.113 112.59 128.534 111.007 127.937 109.43C125.626 103.33 123.379 97.2023 120.963 91.1448C119.576 87.6647 117.065 84.9713 113.999 82.327ZM95.0188 227.888C95.1522 227.895 95.2857 227.906 95.4191 227.913C95.679 226.677 95.8897 225.43 96.2128 224.211C99.4329 211.959 100.335 199.486 99.8613 186.872C99.7665 184.34 99.5137 182.026 97.1363 180.281C95.0574 178.757 94.4043 178.602 93.2138 180.987C92.1673 183.087 90.868 184.417 88.2694 184.403C86.1063 184.389 85.6849 185.337 86.5347 187.339C86.8753 188.143 87.2756 188.926 87.676 189.706C92.0023 198.085 94.2076 207.008 94.5482 216.412C94.6887 220.24 94.8608 224.064 95.0188 227.888ZM60.1236 185.432C59.5899 185.183 59.4424 185.064 59.2808 185.042C55.9062 184.649 53.1987 183.378 51.8818 179.919C51.7097 179.47 50.1119 178.999 49.8837 179.231C48.3631 180.786 46.056 181.791 46.0876 184.537C46.1649 191.613 45.6416 198.734 46.3053 205.751C46.9971 213.069 48.7986 220.278 50.1155 227.537C50.277 227.505 50.4385 227.474 50.5965 227.442C51.183 220.247 51.5166 213.02 52.4261 205.867C53.3532 198.569 56.8789 192.083 60.1236 185.432ZM33.091 89.252C35.6299 88.195 37.5052 87.1907 39.5033 86.6253C43.6435 85.4559 45.2764 82.3516 46.502 78.6293C47.7556 74.8227 48.0576 70.9142 48.4369 66.9847C48.6441 64.8461 47.1832 62.5214 45.0411 62.1737C44.388 62.0684 43.5698 62.2966 42.9798 62.6373C41.3188 63.5995 39.8369 64.9479 38.0881 65.6643C36.7677 66.2086 36.0935 67.0549 35.4298 68.14C33.4281 71.4199 32.6626 75.1001 32.5046 78.8154C32.3641 82.1444 32.8522 85.5016 33.091 89.252ZM112.447 89.1677C112.672 87.5453 112.854 86.2355 113.034 84.9221C113.901 78.6609 113.055 72.7227 109.708 67.2586C109.438 66.8196 109.143 66.3104 108.728 66.0576C106.663 64.7934 104.539 63.6346 102.471 62.3809C101.115 61.5592 97.0836 63.4344 97.1925 64.9936C97.5788 70.6789 97.9475 76.4029 100.511 81.6423C101.136 82.917 101.986 84.3989 103.145 85.031C106.031 86.6042 109.157 87.742 112.447 89.1677ZM73.366 66.6195C73.6013 63.2694 73.7523 60.0281 74.0894 56.8079C74.265 55.1575 74.3247 53.2085 75.2307 51.9724C77.4325 48.97 80.4455 46.8454 84.1538 45.8587C85.1511 45.5918 86.0817 45.0896 87.0439 44.6963C82.7 44.0115 78.8758 45.4337 74.9217 46.9086C76.8425 41.427 79.8415 36.4158 80.3507 30.5444C75.4274 34.1579 70.4935 34.1789 65.4754 30.7165C65.9003 36.5142 69.1942 41.4199 70.9079 47.1685C68.4708 46.2976 66.6026 45.4689 64.6501 44.9772C62.7714 44.5032 60.8084 44.3767 58.8805 44.0958C58.8349 44.2854 58.7892 44.4751 58.7471 44.6612C59.4002 45.0194 60.0218 45.5988 60.7101 45.6936C64.148 46.1677 66.7431 48.1623 69.131 50.3957C70.0967 51.3017 71.0659 52.6361 71.2309 53.8827C71.7858 58.0651 71.9789 62.2966 72.3231 66.6124C72.4916 66.6195 73.1027 66.6195 73.366 66.6195ZM107.833 65.0779C108.033 65.0006 108.23 64.9198 108.43 64.8426C108.612 62.0649 109.079 59.2731 108.914 56.5165C108.686 52.6853 107.794 48.9278 104.244 46.6382C101.343 44.77 98.1055 43.8219 94.622 43.8992C93.0523 43.9343 91.465 43.9694 89.9234 44.2328C88.7259 44.4364 87.5847 44.9878 86.4188 45.3881C86.4644 45.5637 86.5136 45.7428 86.5593 45.9183C89.5547 46.863 91.7038 48.8646 93.421 51.386C95.1628 53.9424 96.9046 56.5024 98.6077 59.0835C99.3697 60.2353 99.9 61.5978 101.751 61.1589C102.077 61.0816 102.551 61.5416 102.931 61.7945C104.567 62.8831 106.196 63.9822 107.833 65.0779ZM37.8107 65.1305C38.8115 64.5019 39.6016 64.0173 40.3777 63.5152C41.5506 62.7567 42.6919 61.3871 43.8858 61.3415C46.1052 61.2607 46.5898 59.6805 47.5414 58.3847C50.9302 53.7704 53.1039 48.0569 59.4213 45.7357C58.2906 45.1107 57.5075 44.3241 56.6892 44.2889C53.5007 44.1485 50.2208 43.8008 47.1271 44.3662C43.4117 45.0475 39.8615 46.5083 38.197 50.5467C36.2339 55.3085 36.3955 60.0632 37.8107 65.1305ZM72.0316 101.803C68.0143 103.007 64.6291 100.9 61.0226 100.373C61.2228 102.02 61.3738 103.471 61.5739 104.914C62.5045 111.625 63.8144 118.241 66.7817 124.407C67.7895 126.5 69.4857 127.648 72.0316 127.855C72.0316 119.171 72.0316 110.603 72.0316 101.803ZM7.40689 141.091C7.65271 141.224 7.89501 141.358 8.14083 141.491C9.19081 139.465 10.1951 137.414 11.3154 135.427C11.7648 134.629 12.4637 133.976 13.0501 133.256C13.3205 133.4 13.5909 133.544 13.8648 133.688C13.3802 135.581 12.8921 137.477 12.4075 139.37C13.029 138.903 13.5312 138.376 13.7595 137.751C15.0833 134.092 16.5653 130.465 17.5485 126.711C18.2719 123.95 18.602 121.11 20.702 118.574C18.8513 117.229 17.1096 115.962 15.1992 114.574C14.3002 116.232 13.7033 117.647 12.8289 118.866C11.9404 120.105 10.9817 121.534 9.7 122.198C6.51494 123.849 3.68807 125.861 1.38443 128.737C2.7013 128.442 3.94442 127.94 5.19807 127.473C5.55275 127.339 5.94605 127.308 6.3218 127.23C6.37798 127.592 6.43417 127.954 6.48685 128.315C6.73617 130.092 5.87231 131.409 4.82935 132.74C3.36149 134.619 2.3396 136.729 2.50816 139.307C4.0006 136.944 5.49305 134.584 6.9855 132.22C7.21375 132.35 7.4385 132.477 7.66676 132.607C7.41041 133.26 7.17161 133.92 6.89068 134.559C6.11812 136.318 5.29289 138.057 4.56949 139.837C4.37284 140.322 4.45712 140.919 4.41498 141.467C4.59407 141.509 4.77317 141.547 4.95226 141.589C5.68619 140.16 6.38852 138.717 7.16108 137.309C7.89501 135.971 8.69918 134.672 9.47174 133.358C9.72107 133.492 9.9739 133.622 10.2232 133.755C9.28562 136.206 8.3445 138.65 7.40689 141.091ZM131.241 133.678C131.449 133.586 131.656 133.495 131.863 133.404C134.943 135.065 134.433 139.475 137.647 141.126C136.737 138.696 135.824 136.266 134.915 133.836C135.09 133.755 135.262 133.674 135.438 133.593C137.931 135.662 138.159 139.275 140.551 141.463C140.61 138.148 138.293 135.581 137.355 132.596C137.583 132.48 137.815 132.364 138.043 132.248C139.585 134.461 141.123 136.67 142.665 138.882C142.243 136.396 141.495 134.061 139.792 132.147C138.458 130.651 138.321 128.983 138.855 127.276C140.526 127.817 142.099 128.326 143.669 128.835C143.785 128.582 143.904 128.33 144.02 128.077C141.534 126.423 139.118 124.635 136.533 123.146C134.209 121.808 132.463 120.098 131.427 117.623C131.059 116.741 130.5 115.94 129.9 114.873C128.028 116.33 126.357 117.637 125.022 118.676C125.833 120.98 126.894 122.844 127.098 124.8C127.593 129.545 129.461 133.762 131.449 137.969C131.719 138.545 132.126 139.054 132.47 139.595C132.537 139.549 132.604 139.5 132.671 139.454C132.193 137.527 131.719 135.602 131.241 133.678ZM91.4018 165.346C90.8961 166.059 90.5801 166.705 90.0885 167.172C88.1184 169.043 86.2678 171.122 84.0274 172.601C82.714 173.468 82.3909 174.251 82.7245 175.48C83.5533 178.553 84.4804 181.598 85.3829 184.691C86.022 184.393 86.3907 184.07 86.7594 184.07C90.1973 184.07 92.2551 182.289 93.6703 179.262C94.2778 177.963 95.7387 178.072 96.9046 179.125C97.5753 179.729 98.2425 180.333 98.9132 180.937C99.0291 178.823 98.6955 176.881 98.548 174.925C98.4005 172.952 98.2881 170.954 98.4462 168.991C98.6007 167.038 99.0467 165.1 99.4751 163.179C99.8894 161.328 100.441 159.509 100.932 157.676C100.785 157.634 100.637 157.592 100.486 157.55C100.272 158.077 100.062 158.603 99.8473 159.13C98.562 162.255 97.3189 165.402 95.9634 168.496C95.2822 170.058 94.2533 170.167 93.263 168.784C92.5677 167.807 92.1006 166.659 91.4018 165.346ZM60.0464 184.33C61.6793 180.79 63.3157 177.327 63.263 173.289C58.6066 172.092 56.3205 168.408 53.9993 164.485C53.4023 166.81 53.304 169.065 50.7054 169.795C47.6749 165.693 46.7618 160.703 44.7286 156.219C45.589 160.314 47.0322 164.327 47.3694 168.436C47.71 172.587 46.955 176.829 46.6776 181.029C46.804 181.124 46.9304 181.215 47.0568 181.31C47.6398 180.607 48.1981 179.884 48.8091 179.206C49.982 177.9 51.7624 177.984 52.8159 179.41C53.2268 179.968 53.5569 180.6 53.8483 181.232C54.6665 183.002 56.0571 183.856 57.971 183.982C58.6031 184.024 59.2282 184.189 60.0464 184.33ZM73.1378 102.614C73.1378 110.852 73.1378 119.357 73.1378 127.982C74.7145 127.792 76.3053 128.038 77.0041 126.367C79.2726 120.93 81.2813 115.407 82.1486 109.546C82.6051 106.477 83.0125 103.4 83.4269 100.415C79.9187 101.167 76.6389 101.866 73.1378 102.614ZM72.0281 73.5339C72.0702 73.5339 72.1159 73.5339 72.158 73.5339C72.158 72.1292 72.1545 70.7246 72.158 69.3234C72.165 67.3815 71.7788 67.1813 69.8649 67.5992C67.0767 68.2067 64.2674 68.7545 61.4405 69.1162C60.2992 69.2602 59.9094 69.7448 59.8181 70.707C59.639 72.6244 59.4775 74.5452 59.344 76.4661C59.1298 79.5142 59.9445 80.4869 63.0453 80.7819C63.7898 80.8521 64.5659 80.7503 65.3103 80.6379C67.2066 80.3465 69.1099 80.0655 70.9781 79.6371C71.396 79.5423 71.9438 78.8786 71.9754 78.4467C72.0983 76.8138 72.0281 75.1703 72.0281 73.5339ZM97.9299 131.413C99.3557 136.775 98.4462 141.93 97.9089 147.089C97.3435 152.525 94.8713 157.357 92.954 162.347C92.1638 164.405 92.5958 166.101 93.3789 167.86C93.5825 168.317 94.1725 168.763 94.6606 168.871C94.9134 168.928 95.4683 168.299 95.6544 167.874C96.6833 165.525 97.6244 163.137 98.6253 160.777C100.862 155.513 102.453 150.123 101.937 144.304C101.694 141.572 101.22 138.829 101.326 136.111C101.421 133.586 100.146 132.449 97.9299 131.413ZM47.0498 131.852C45.0622 132.414 44.4126 134.078 44.3423 136.238C44.244 139.216 43.9139 142.183 43.8718 145.161C43.8366 147.486 43.6646 149.933 44.2932 152.11C45.5995 156.637 47.3588 161.037 49.0093 165.458C49.4763 166.712 50.2243 167.864 50.8599 169.096C53.1706 167.481 54.038 164.285 52.8089 161.866C49.2656 154.885 47.3167 147.507 47.0638 139.69C46.976 137.081 47.0498 134.464 47.0498 131.852ZM73.1869 79.4686C75.0973 79.8267 76.8847 80.055 78.6124 80.5185C80.4666 81.0137 82.2329 80.8837 83.8623 79.9848C84.4347 79.6722 85.0738 78.8084 85.0563 78.2114C84.979 75.5952 84.6349 72.9896 84.4663 70.3769C84.4031 69.3796 83.922 69.2111 83.0406 69.0706C80.6316 68.6948 78.2472 68.14 75.8488 67.694C74.9849 67.5325 74.1035 67.4693 73.194 67.3534C73.1869 71.6095 73.1869 75.5566 73.1869 79.4686ZM59.165 80.1007C59.165 83.6966 59.1228 86.7728 59.2176 89.849C59.2282 90.2352 59.8708 90.7901 60.3308 90.9516C63.8705 92.1912 67.47 91.6996 71.0448 91.1167C71.4627 91.0499 72.0843 90.3687 72.0983 89.9543C72.1861 86.8254 72.1475 83.6931 72.1475 80.4764C67.7263 80.1147 63.6002 83.2927 59.165 80.1007ZM73.0746 80.3851C73.0746 83.8054 73.0465 86.9483 73.1097 90.0842C73.1167 90.4811 73.5802 91.208 73.8366 91.2115C77.1867 91.229 80.5438 91.1974 83.8869 91.0289C84.3504 91.0043 85.137 90.1931 85.1546 89.7225C85.2705 86.6674 85.2143 83.6053 85.2143 80.062C81.0425 83.0364 77.1937 80.6098 73.0746 80.3851ZM59.1193 91.668C59.6425 94.1191 59.7022 96.658 60.7908 98.621C61.4159 99.7483 63.695 99.9941 65.2612 100.545C66.2479 100.89 67.2804 101.16 68.3163 101.279C69.2223 101.385 70.188 101.357 71.0729 101.149C71.4733 101.055 72.007 100.394 72.0211 99.98C72.1053 97.2445 72.0632 94.5054 72.0632 91.7839C67.8422 92.5705 63.702 92.739 59.1193 91.668ZM51.1057 109.131C48.314 116.558 45.9331 124.105 44.8691 132.403C45.6416 131.932 46.1087 131.715 46.4985 131.399C52.1382 126.809 54.2346 120.787 53.6657 113.672C53.5182 111.79 53.4901 109.893 51.1057 109.131ZM94.6395 109.293C91.8373 110.241 92.1814 112.527 92.0234 114.574C91.451 121.963 94.183 127.736 100.63 131.894C99.8543 123.929 97.1855 116.636 94.6395 109.293ZM73.1413 92.0297C73.1413 94.6564 73.2185 97.2129 73.1097 99.7623C73.05 101.16 73.7207 101.631 74.8585 101.388C77.58 100.809 80.2699 100.096 82.9633 99.3971C83.2653 99.3199 83.6762 99.0284 83.7429 98.765C84.3048 96.4438 84.7999 94.1086 85.2564 92.0332C80.9968 92.0297 77.1445 92.0297 73.1413 92.0297ZM89.1087 43.1301C87.1246 41.7816 84.9439 40.8054 83.5006 39.1725C82.1065 37.5993 81.4709 35.3483 80.6913 33.7751C79.2059 37.522 77.58 41.6236 75.9681 45.6796C78.1875 45.0404 80.2734 44.2889 82.419 43.8711C84.5822 43.4532 86.8086 43.3724 89.1087 43.1301ZM56.4926 42.8246C60.8505 43.6358 65.205 44.447 69.4822 45.2441C68.0389 41.5007 66.4762 37.4412 64.7344 32.9253C64.4605 38.6422 60.7241 41.0477 56.4926 42.8246Z" fill="black"/>
<path d="M62.7363 172.404C60.531 171.596 58.3889 170.213 57.058 168.057C52.5771 160.805 49.0584 153.181 48.177 144.522C47.7451 140.259 47.278 136.038 48.2332 131.806C48.3702 131.206 48.5668 130.507 48.9777 130.096C53.297 125.815 54.5015 120.502 54.2451 114.673C54.203 113.746 54.2381 112.819 54.2381 111.421C55.864 112.819 57.4513 113.84 58.589 115.228C62.2236 119.649 65.7809 124.144 69.1872 128.744C70.8517 130.991 70.6164 133.829 70.2828 136.399C69.0643 145.765 68.0353 155.172 65.3208 164.275C64.5342 166.919 63.6493 169.539 62.7363 172.404Z" fill="white"/>
<path d="M91.595 111.927C90.9875 115.786 90.9489 119.628 92.4203 123.301C93.0172 124.797 93.7371 126.444 94.8889 127.473C97.5402 129.84 97.8984 132.898 98.0389 136.038C98.534 146.994 95.4332 157.051 89.8708 166.343C88.6066 168.457 86.3627 169.999 84.498 171.723C84.038 172.148 83.2865 172.264 82.7773 172.474C81.2427 166.694 79.4728 161.16 78.3526 155.496C77.0674 148.988 76.1614 142.383 75.4766 135.781C75.1114 132.256 75.5503 128.765 78.5317 125.984C80.4245 124.217 81.643 121.749 83.3743 119.779C85.857 116.948 88.5294 114.283 91.121 111.547C91.2755 111.677 91.4335 111.804 91.595 111.927Z" fill="white"/>
<path d="M45.424 188.329C45.424 191.939 45.5293 195.553 45.4029 199.159C45.115 207.31 46.6109 215.19 48.6828 223.007C49.1007 224.58 49.2376 226.227 49.6309 227.811C49.7468 228.278 50.2911 228.636 50.6423 229.047C50.9653 228.594 51.5413 228.155 51.5693 227.681C51.8046 223.716 51.917 219.741 52.1066 215.773C52.4086 209.512 53.0969 203.292 55.3654 197.41C56.6366 194.12 58.3749 191.009 60.1483 187.848C60.1483 189.081 60.2326 190.32 60.1342 191.546C59.5794 198.415 58.8665 205.266 56.6086 211.829C55.7166 214.417 54.7544 216.995 53.6342 219.492C51.629 223.948 51.8117 228.59 52.2857 233.25C52.4964 235.329 53.1671 237.362 53.3568 239.441C53.4621 240.59 53.0758 241.805 52.7914 242.963C52.3805 244.628 51.8362 246.264 51.3938 247.922C51.2147 248.596 51.1971 249.312 51.0145 249.987C50.1752 253.13 48.8057 254.18 45.5644 253.832C43.31 253.59 41.0801 253.08 38.8572 252.61C37.2594 252.273 36.8626 251.332 37.5614 249.843C37.586 249.79 37.5965 249.723 37.6387 249.685C41.6068 245.755 42.3021 240.274 44.4197 235.47C44.6163 235.027 44.4864 233.844 45.6557 234.469C45.7857 233.949 46.0842 233.408 46.021 232.917C45.568 229.391 45.0763 225.869 44.532 222.354C43.6295 216.545 41.6455 210.849 42.26 204.88C42.6709 200.89 43.4856 196.94 44.1422 192.975C44.4021 191.402 44.7217 189.843 45.0131 188.277C45.1466 188.291 45.2835 188.308 45.424 188.329Z" fill="white"/>
<path d="M101.024 189.79C101.557 192.751 102.112 195.707 102.621 198.671C103.742 205.189 103.559 211.647 102.19 218.147C101.08 223.421 99.4996 228.668 99.8543 233.879C100.413 234.332 100.96 234.56 101.136 234.957C101.607 236.017 101.989 237.127 102.281 238.251C103.362 242.43 105.066 246.257 107.91 249.59C109.266 251.177 108.742 252.357 106.656 252.701C104.072 253.13 101.452 253.439 98.8359 253.604C96.441 253.751 94.7414 251.908 94.5939 248.807C94.485 246.517 94.0285 244.452 92.7924 242.518C91.8724 241.078 92.1392 239.504 92.5993 237.956C94.787 230.599 94.2111 223.527 91.0225 216.479C87.9218 209.627 86.3205 202.334 86.1203 194.77C86.0606 192.571 85.8218 190.377 85.6287 187.715C93.7476 201.031 94.492 215.344 94.1163 229.84C95.4964 229.932 95.8405 229.444 96.0617 228.278C96.9994 223.361 98.4497 218.522 99.0993 213.575C99.8894 207.566 100.09 201.48 100.479 195.423C100.599 193.562 100.497 191.687 100.497 189.818C100.673 189.804 100.848 189.797 101.024 189.79Z" fill="white"/>
<path d="M85.1195 69.2848C89.4107 69.3761 92.7327 67.0198 96.5464 65.278C96.7219 69.0109 97.8632 72.4629 95.4964 75.9815C92.9574 79.7601 92.9855 84.2901 93.3437 88.6831C93.6879 92.9217 94.3726 97.1357 94.7203 101.378C94.8889 103.453 94.6466 105.564 94.5482 107.657C94.5342 107.959 94.3586 108.362 94.1233 108.527C87.848 112.917 83.1003 118.732 78.7388 124.913C78.6229 125.078 78.4298 125.19 78.3982 125.218C84.2977 107.144 87.3739 88.655 85.1195 69.2848Z" fill="white"/>
<path d="M77.9101 6.08582C79.3042 5.82596 80.2523 6.4721 80.5824 7.73629C81.1197 9.80465 81.5025 11.9187 81.8888 14.0221C82.096 15.1599 82.1662 16.3223 82.3277 17.467C82.3558 17.6742 82.5595 18.0324 82.6648 18.0254C83.3602 17.9797 84.0941 17.7971 84.0309 18.8998C83.9361 20.5538 84.4979 22.429 82.9879 23.6721C81.657 24.7677 81.4007 26.2321 80.8107 27.6824C80.2278 29.1152 79.0127 30.583 77.6818 31.3556C74.8936 32.9815 71.7858 33.0166 68.7763 31.7278C66.887 30.9201 65.514 29.7894 65.2436 27.4085C65.0645 25.8458 63.9092 24.4131 63.3227 22.8715C62.7819 21.4457 62.4132 19.9568 61.8865 18.215C62.8135 18.3309 63.2455 18.3871 63.8916 18.4679C64.0426 17.7199 64.3341 16.9438 64.3306 16.1713C64.32 14.7806 63.9619 13.376 64.0707 12.0029C64.162 10.8336 64.5764 9.63609 65.0891 8.56504C65.6334 7.42376 66.585 7.06557 67.9792 7.35352C71.4276 8.0699 74.7601 7.4062 77.9663 6.02612L77.9101 6.08582Z" fill="white"/>
<path d="M60.7454 68.5754C56.1802 68.2664 52.9179 66.4579 49.7329 64.4984C48.7953 63.9225 48.0122 63.0972 47.1167 62.4441C46.3336 61.8752 46.2879 61.3309 46.8393 60.5408C49.0341 57.3803 51.1375 54.1496 53.378 51.0207C54.1119 49.9953 55.0776 49.0788 56.0925 48.3168C59.0001 46.129 61.6373 46.0377 64.6749 48.0077C66.1393 48.9559 67.4983 50.0726 68.8713 51.1577C70.4164 52.3797 70.8168 54.1285 70.9678 55.9791C71.1644 58.4232 71.3646 60.8673 71.5999 63.3079C71.8176 65.5765 71.3927 66.5281 69.1874 67.0478C66.1954 67.7572 63.1298 68.1575 60.7454 68.5754Z" fill="white"/>
<path d="M99.6613 61.8085C96.9433 63.5433 94.6221 65.1727 92.1675 66.5668C86.8192 69.6008 81.3657 68.3366 75.9121 66.7915C74.4231 66.3701 73.9842 65.3202 74.0614 64.0173C74.2405 60.9903 74.5074 57.9703 74.7919 54.9503C74.9569 53.1804 75.754 51.7406 77.25 50.7012C78.156 50.0691 78.9742 49.3036 79.8872 48.682C84.4173 45.6058 87.964 45.8973 91.4054 50.1393C94.292 53.7001 96.7291 57.6261 99.6613 61.8085Z" fill="white"/>
<path d="M49.1604 65.601C52.672 67.0338 55.9414 68.3717 59.2318 69.7167C59.0492 72.4171 58.7226 75.3704 58.6699 78.3307C58.54 85.6595 58.1888 92.9743 60.1272 100.219C61.3388 104.756 61.725 109.507 62.603 114.139C63.0208 116.344 63.7302 118.493 64.3798 120.927C64.0041 120.579 63.7653 120.435 63.6319 120.225C60.7067 115.663 56.4716 112.432 52.4016 109.012C51.6782 108.404 51.0497 107.158 51.0953 106.241C51.3657 100.717 51.8117 95.2007 52.2647 89.6839C52.7142 84.1952 52.7212 78.8259 49.3184 74.0536C48.8759 73.4355 48.6442 72.5155 48.6688 71.7429C48.725 69.7167 48.9778 67.694 49.1604 65.601Z" fill="white"/>
<path d="M31.6793 82.4535C32.0867 84.9748 32.487 87.447 32.9225 90.151C36.248 88.7674 39.1381 87.5629 42.2985 86.2495C42.2143 89.3468 41.3223 92.0016 40.3215 94.6318C39.1802 97.6237 37.1399 99.9379 34.6291 101.82C29.0807 105.978 24.3857 110.82 21.6887 117.345C21.5869 117.594 21.3832 117.802 21.2111 118.054C19.3359 116.72 17.545 115.442 15.8313 114.223C18.6722 106.768 21.464 99.2637 24.3962 91.8155C25.8711 88.0791 28.6839 84.6588 31.6793 82.4535Z" fill="#1E8FB3"/>
<path d="M113.999 82.3271C117.062 84.9748 119.572 87.6648 120.963 91.1448C123.379 97.2024 125.623 103.33 127.937 109.43C128.534 111.007 129.113 112.59 129.714 114.209C127.919 115.558 126.167 116.878 124.292 118.29C122.515 112.099 118.21 107.843 113.711 103.741C112.767 102.877 111.724 102.115 110.691 101.353C105.722 97.6729 104.311 92.2615 103.278 86.2039C106.06 87.3803 108.574 88.3706 111.021 89.5049C112.38 90.1334 112.995 89.7191 113.192 88.3776C113.469 86.4848 113.701 84.5815 113.999 82.3271Z" fill="#1E8FB3"/>
<path d="M95.0188 227.888C94.8608 224.064 94.6852 220.24 94.5483 216.415C94.2077 207.008 91.9988 198.088 87.676 189.709C87.2757 188.93 86.8753 188.147 86.5347 187.343C85.6849 185.344 86.1063 184.396 88.2695 184.407C90.8681 184.421 92.1674 183.09 93.2139 180.99C94.4043 178.606 95.054 178.76 97.1364 180.284C99.5137 182.026 99.7666 184.34 99.8614 186.876C100.335 199.486 99.4295 211.963 96.2128 224.215C95.8932 225.433 95.6825 226.68 95.4192 227.916C95.2857 227.906 95.1523 227.895 95.0188 227.888Z" fill="white"/>
<path d="M60.1239 185.432C56.8792 192.083 53.3535 198.569 52.4299 205.87C51.5239 213.023 51.1868 220.25 50.6003 227.446C50.4388 227.477 50.2773 227.509 50.1192 227.54C48.8024 220.282 47.0009 213.069 46.3091 205.754C45.6454 198.741 46.1687 191.616 46.0914 184.54C46.0633 181.794 48.3669 180.79 49.8875 179.234C50.1157 179.002 51.7135 179.473 51.8856 179.922C53.2025 183.381 55.9099 184.653 59.2846 185.046C59.4427 185.064 59.5901 185.183 60.1239 185.432Z" fill="white"/>
<path d="M33.0911 89.2519C32.8523 85.5015 32.3642 82.1478 32.5047 78.8188C32.6627 75.1035 33.4282 71.4233 35.4299 68.1434C36.0936 67.0583 36.7678 66.212 38.0882 65.6677C39.837 64.9513 41.3154 63.6029 42.9799 62.6407C43.5699 62.3001 44.3916 62.0683 45.0412 62.1771C47.1833 62.5248 48.6442 64.853 48.437 66.9881C48.0577 70.9176 47.7557 74.8226 46.5021 78.6327C45.2765 82.355 43.6471 85.4593 39.5034 86.6287C37.5052 87.1906 35.63 88.1949 33.0911 89.2519Z" fill="white"/>
<path d="M112.447 89.1677C109.157 87.742 106.031 86.6042 103.141 85.0275C101.982 84.3954 101.129 82.9135 100.508 81.6387C97.944 76.3994 97.5753 70.6789 97.189 64.99C97.0837 63.4309 101.115 61.5557 102.467 62.3774C104.535 63.631 106.663 64.7899 108.725 66.0541C109.143 66.3104 109.438 66.8161 109.705 67.2551C113.051 72.7192 113.897 78.6574 113.03 84.9186C112.854 86.2355 112.672 87.5453 112.447 89.1677Z" fill="white"/>
<path d="M73.3661 66.6194C73.1027 66.6194 72.4882 66.6194 72.3196 66.6194C71.979 62.3036 71.7859 58.0721 71.2275 53.8897C71.0625 52.6431 70.0933 51.3052 69.1276 50.4027C66.7361 48.1657 64.1446 46.1711 60.7067 45.7006C60.0184 45.6058 59.3968 45.0228 58.7437 44.6682C58.7893 44.4785 58.835 44.2889 58.8771 44.1028C60.805 44.3837 62.768 44.5101 64.6467 44.9842C66.5992 45.4758 68.4709 46.3046 70.9045 47.1755C69.1908 41.4269 65.9004 36.5211 65.472 30.7234C70.4901 34.1859 75.4239 34.1613 80.3473 30.5514C79.8381 36.4263 76.8391 41.4339 74.9183 46.9156C78.8759 45.4372 82.6966 44.015 87.0404 44.7033C86.0783 45.0966 85.1477 45.5987 84.1504 45.8656C80.4421 46.8559 77.4291 48.9804 75.2273 51.9794C74.3213 53.212 74.2616 55.1609 74.086 56.8149C73.7524 60.0281 73.6049 63.2693 73.3661 66.6194Z" fill="white"/>
<path d="M107.833 65.0779C106.2 63.9822 104.567 62.8796 102.927 61.7945C102.548 61.5417 102.074 61.0816 101.747 61.1589C99.8965 61.5978 99.3662 60.2353 98.6042 59.0835C96.901 56.5025 95.1593 53.9425 93.4175 51.386C91.7003 48.8646 89.5512 46.863 86.5558 45.9184C86.5101 45.7428 86.4609 45.5637 86.4153 45.3881C87.5811 44.9913 88.7224 44.4365 89.9199 44.2328C91.4615 43.9729 93.0488 43.9343 94.6185 43.8992C98.0985 43.8219 101.34 44.7701 104.24 46.6383C107.791 48.9278 108.683 52.6888 108.911 56.5165C109.076 59.2731 108.609 62.0649 108.426 64.8426C108.23 64.9234 108.029 65.0006 107.833 65.0779Z" fill="white"/>
<path d="M37.8107 65.1305C36.3955 60.0632 36.234 55.3084 38.197 50.5502C39.8615 46.5118 43.4118 45.0474 47.1271 44.3697C50.2208 43.8043 53.5007 44.1484 56.6893 44.2924C57.5075 44.3275 58.2906 45.1141 59.4213 45.7392C53.1039 48.0604 50.9302 53.7739 47.5414 58.3881C46.5898 59.6839 46.1017 61.2642 43.8858 61.3449C42.6919 61.3871 41.5506 62.7566 40.3777 63.5187C39.6016 64.0173 38.8115 64.5019 37.8107 65.1305Z" fill="white"/>
<path d="M72.0317 101.803C72.0317 110.599 72.0317 119.168 72.0317 127.855C69.4822 127.648 67.7896 126.5 66.7818 124.407C63.8145 118.244 62.5046 111.628 61.574 104.914C61.3739 103.471 61.2229 102.02 61.0227 100.373C64.6292 100.904 68.0144 103.007 72.0317 101.803Z" fill="white"/>
<path d="M7.40674 141.091C8.34435 138.647 9.28547 136.203 10.2231 133.758C9.97375 133.625 9.72091 133.495 9.47158 133.362C8.69902 134.679 7.89486 135.974 7.16093 137.312C6.38836 138.72 5.68604 140.164 4.9521 141.593C4.77301 141.551 4.59392 141.512 4.41482 141.47C4.46047 140.922 4.37268 140.325 4.56933 139.841C5.29273 138.06 6.12148 136.322 6.89053 134.563C7.17146 133.92 7.41025 133.26 7.6666 132.61C7.43835 132.48 7.2136 132.354 6.98534 132.224C5.4929 134.587 4.00045 136.947 2.508 139.31C2.33944 136.729 3.36133 134.622 4.8292 132.744C5.86864 131.413 6.73602 130.096 6.48669 128.319C6.43402 127.957 6.37783 127.596 6.32164 127.234C5.9459 127.311 5.55259 127.343 5.19792 127.476C3.94426 127.943 2.70114 128.445 1.38428 128.74C3.6844 125.864 6.51478 123.852 9.69984 122.202C10.9816 121.538 11.9403 120.105 12.8287 118.869C13.7031 117.651 14.3001 116.235 15.1991 114.578C17.1094 115.965 18.8512 117.233 20.7018 118.578C18.6018 121.113 18.2718 123.954 17.5484 126.714C16.5651 130.468 15.0832 134.092 13.7593 137.755C13.531 138.38 13.0289 138.907 12.4073 139.374C12.8919 137.481 13.38 135.585 13.8646 133.692C13.5942 133.548 13.3239 133.404 13.0499 133.26C12.4635 133.98 11.7612 134.633 11.3152 135.43C10.195 137.418 9.19065 139.468 8.14067 141.495C7.89486 141.358 7.64904 141.224 7.40674 141.091Z" fill="white"/>
<path d="M131.241 133.678C131.719 135.602 132.193 137.523 132.671 139.447C132.604 139.493 132.537 139.542 132.47 139.588C132.126 139.047 131.719 138.538 131.449 137.962C129.461 133.755 127.593 129.537 127.098 124.793C126.894 122.837 125.833 120.973 125.022 118.669C126.357 117.629 128.028 116.327 129.9 114.866C130.5 115.933 131.062 116.734 131.427 117.615C132.463 120.095 134.209 121.801 136.533 123.139C139.118 124.628 141.53 126.412 144.02 128.07C143.904 128.322 143.785 128.575 143.669 128.828C142.096 128.319 140.526 127.81 138.855 127.269C138.321 128.976 138.458 130.64 139.792 132.14C141.499 134.053 142.243 136.392 142.665 138.875C141.123 136.663 139.585 134.454 138.043 132.241C137.815 132.357 137.583 132.473 137.355 132.589C138.296 135.574 140.61 138.141 140.551 141.456C138.156 139.268 137.931 135.655 135.438 133.586C135.262 133.667 135.09 133.748 134.915 133.829C135.824 136.259 136.737 138.689 137.647 141.119C134.433 139.465 134.943 135.058 131.863 133.397C131.656 133.495 131.449 133.586 131.241 133.678Z" fill="white"/>
<path d="M91.402 165.346C92.1008 166.659 92.5678 167.807 93.2702 168.791C94.2605 170.174 95.2894 170.065 95.9706 168.503C97.3226 165.405 98.5657 162.262 99.8545 159.137C100.072 158.61 100.283 158.084 100.494 157.557C100.641 157.599 100.789 157.641 100.94 157.683C100.448 159.516 99.8931 161.335 99.4823 163.186C99.0538 165.107 98.6079 167.045 98.4534 168.998C98.2988 170.964 98.4112 172.962 98.5552 174.932C98.6992 176.888 99.0363 178.827 98.9204 180.944C98.2497 180.34 97.5825 179.736 96.9117 179.132C95.7459 178.079 94.285 177.967 93.6775 179.269C92.2623 182.296 90.2045 184.077 86.7666 184.077C86.3979 184.077 86.0257 184.4 85.39 184.698C84.4911 181.605 83.5605 178.56 82.7317 175.487C82.4016 174.258 82.7212 173.475 84.0346 172.608C86.275 171.129 88.1256 169.05 90.0956 167.179C90.5767 166.705 90.8963 166.059 91.402 165.346Z" fill="white"/>
<path d="M60.0465 184.33C59.2283 184.189 58.6032 184.024 57.9712 183.982C56.0573 183.856 54.6667 183.002 53.8485 181.232C53.557 180.6 53.2269 179.968 52.8161 179.41C51.7626 177.981 49.9822 177.9 48.8093 179.206C48.1983 179.884 47.6399 180.607 47.057 181.31C46.9306 181.215 46.8041 181.124 46.6777 181.029C46.9516 176.829 47.7101 172.587 47.3695 168.436C47.0324 164.331 45.5926 160.314 44.7288 156.219C46.762 160.703 47.6785 165.693 50.7056 169.795C53.3042 169.065 53.4025 166.81 53.9995 164.485C56.3207 168.408 58.6068 172.092 63.2632 173.289C63.3159 177.327 61.6794 180.79 60.0465 184.33Z" fill="white"/>
<path d="M73.1379 102.614C76.639 101.866 79.9189 101.167 83.4306 100.415C83.0127 103.4 82.6088 106.477 82.1523 109.546C81.2814 115.41 79.2763 120.934 77.0078 126.366C76.309 128.038 74.7182 127.792 73.1415 127.982C73.1379 119.357 73.1379 110.852 73.1379 102.614Z" fill="white"/>
<path d="M72.028 73.5338C72.028 75.1702 72.0982 76.8137 71.9789 78.4431C71.9472 78.8785 71.3959 79.5387 70.9815 79.6335C69.1134 80.062 67.21 80.3429 65.3138 80.6344C64.5658 80.7502 63.7932 80.8486 63.0488 80.7783C59.9515 80.4834 59.1333 79.5106 59.3475 76.4625C59.4844 74.5417 59.6425 72.6208 59.8216 70.7034C59.9129 69.7412 60.3026 69.2601 61.4439 69.1127C64.2708 68.7545 67.0801 68.2067 69.8684 67.5956C71.7822 67.1777 72.165 67.3779 72.1615 69.3199C72.1579 70.7245 72.1615 72.1292 72.1615 73.5303C72.1158 73.5338 72.0702 73.5338 72.028 73.5338Z" fill="#1E8FB2"/>
<path d="M97.93 131.413C100.146 132.449 101.424 133.586 101.326 136.111C101.224 138.829 101.694 141.575 101.937 144.304C102.453 150.123 100.862 155.513 98.6253 160.777C97.6245 163.137 96.6834 165.525 95.6545 167.874C95.4684 168.295 94.9135 168.928 94.6607 168.871C94.1726 168.762 93.5826 168.32 93.3789 167.86C92.5958 166.097 92.1604 164.405 92.954 162.347C94.8714 157.357 97.3436 152.525 97.9089 147.089C98.4462 141.93 99.3557 136.775 97.93 131.413Z" fill="white"/>
<path d="M47.0497 131.852C47.0497 134.464 46.9795 137.081 47.0638 139.69C47.3166 147.507 49.2656 154.881 52.8088 161.866C54.0379 164.285 53.1705 167.481 50.8599 169.096C50.2242 167.864 49.4798 166.712 49.0092 165.458C47.3552 161.037 45.5959 156.637 44.2931 152.11C43.6645 149.93 43.8366 147.482 43.8717 145.161C43.9173 142.186 44.2474 139.216 44.3423 136.238C44.4125 134.078 45.0586 132.414 47.0497 131.852Z" fill="white"/>
<path d="M73.187 79.4685C73.187 75.5566 73.187 71.6095 73.187 67.3534C74.0965 67.4657 74.9779 67.5325 75.8418 67.694C78.2403 68.1435 80.6247 68.6948 83.0337 69.0706C83.9151 69.2075 84.3962 69.3796 84.4594 70.3769C84.6279 72.9895 84.9721 75.5987 85.0493 78.2114C85.0669 78.8048 84.4278 79.6687 83.8554 79.9847C82.226 80.8802 80.4631 81.0136 78.6055 80.5185C76.8848 80.055 75.0973 79.8267 73.187 79.4685Z" fill="#1E8FB2"/>
<path d="M59.165 80.1006C63.6037 83.2927 67.7264 80.1146 72.144 80.4763C72.144 83.693 72.1826 86.8254 72.0948 89.9543C72.0843 90.3651 71.4627 91.0464 71.0413 91.1166C67.4665 91.6995 63.8671 92.1912 60.3273 90.9516C59.8673 90.79 59.2247 90.2387 59.2141 89.8489C59.1228 86.7727 59.165 83.6965 59.165 80.1006Z" fill="#1E8FB2"/>
<path d="M73.0746 80.3851C77.1937 80.6098 81.039 83.0328 85.2143 80.0655C85.2143 83.6087 85.2705 86.6709 85.1546 89.726C85.1371 90.1966 84.3505 91.0078 83.8869 91.0323C80.5403 91.2009 77.1867 91.2325 73.8366 91.215C73.5803 91.215 73.1167 90.4845 73.1097 90.0877C73.0465 86.9483 73.0746 83.8089 73.0746 80.3851Z" fill="#1E8FB2"/>
<path d="M77.9664 6.03317C76.2492 6.29304 74.5355 6.6758 72.8078 6.77413C71.0836 6.87246 69.3278 6.52832 67.6141 6.68985C66.6554 6.78115 65.486 7.27629 64.8785 7.98565C63.0841 10.0856 63.4774 12.6596 63.7899 15.1634C63.8426 15.5708 63.8601 15.9817 63.7829 16.3995C61.7988 12.9862 62.2764 7.50806 64.3553 4.58287C65.2578 3.31165 66.1392 1.98776 67.5825 1.71737C70.2162 1.22223 72.8394 0.656853 75.6277 1.53125C82.4824 3.68038 84.5156 9.02509 83.5604 14.9738C83.4516 15.641 83.2725 16.2942 82.7141 16.9684C82.5667 15.476 82.535 13.9589 82.2366 12.4981C81.8433 10.5772 81.4043 8.63179 80.6563 6.83383C80.2455 5.84355 79.2552 4.7725 77.9137 6.07883C77.9102 6.08585 77.9664 6.03317 77.9664 6.03317Z" fill="white"/>
<path d="M59.1191 91.6679C63.7018 92.739 67.8421 92.5704 72.0666 91.7838C72.0666 94.5088 72.1087 97.2444 72.0244 99.98C72.0104 100.398 71.4766 101.058 71.0763 101.149C70.1913 101.357 69.2256 101.385 68.3196 101.279C67.2872 101.16 66.2513 100.889 65.2645 100.545C63.6983 99.9975 61.4158 99.7482 60.7942 98.621C59.7021 96.658 59.6424 94.119 59.1191 91.6679Z" fill="#1E8FB2"/>
<path d="M51.1058 109.131C53.4867 109.893 53.5183 111.79 53.6658 113.672C54.2347 120.783 52.1382 126.805 46.4985 131.399C46.1087 131.715 45.6417 131.932 44.8691 132.403C45.9332 124.105 48.3141 116.558 51.1058 109.131Z" fill="white"/>
<path d="M94.6395 109.293C97.1854 116.636 99.8543 123.929 100.63 131.894C94.183 127.732 91.4509 121.959 92.0233 114.574C92.1778 112.527 91.8337 110.241 94.6395 109.293Z" fill="white"/>
<path d="M73.1414 92.0297C77.1411 92.0297 80.9969 92.0297 85.2601 92.0297C84.8035 94.1086 84.3084 96.4438 83.7465 98.7615C83.6833 99.0249 83.269 99.3163 82.967 99.3936C80.2735 100.092 77.5801 100.802 74.8621 101.385C73.7243 101.627 73.0536 101.156 73.1133 99.7588C73.2186 97.2128 73.1414 94.6564 73.1414 92.0297Z" fill="#1E8FB2"/>
<path d="M89.1087 43.1301C86.8086 43.3724 84.5822 43.4532 82.4226 43.8746C80.2734 44.2924 78.191 45.0439 75.9717 45.6831C77.58 41.6271 79.2059 37.5255 80.6948 33.7786C81.4744 35.3553 82.11 37.6028 83.5041 39.176C84.9404 40.8054 87.1211 41.7816 89.1087 43.1301Z" fill="white"/>
<path d="M56.4927 42.8246C60.7242 41.0477 64.4606 38.6422 64.7345 32.9218C66.4763 37.4412 68.039 41.5007 69.4822 45.2406C65.2086 44.4505 60.8541 43.6393 56.4927 42.8246Z" fill="white"/>
</svg>
