<svg width="25" height="24" viewBox="0 0 25 24" fill="none" xmlns="http://www.w3.org/2000/svg">
<g id="duo icons/menu">
<path id="Vector" d="M18.6876 10H5.68762C4.85919 10 4.18762 10.6716 4.18762 11.5C4.18762 12.3284 4.85919 13 5.68762 13H18.6876C19.516 13 20.1876 12.3284 20.1876 11.5C20.1876 10.6716 19.516 10 18.6876 10Z" fill="white"/>
<path id="Vector_2" opacity="0.3" d="M10.6876 16H5.68762C4.85919 16 4.18762 16.6716 4.18762 17.5C4.18762 18.3284 4.85919 19 5.68762 19H10.6876C11.516 19 12.1876 18.3284 12.1876 17.5C12.1876 16.6716 11.516 16 10.6876 16Z" fill="white"/>
<path id="Vector_3" opacity="0.3" d="M14.6876 4H5.68762C4.85919 4 4.18762 4.67157 4.18762 5.5C4.18762 6.32843 4.85919 7 5.68762 7H14.6876C15.516 7 16.1876 6.32843 16.1876 5.5C16.1876 4.67157 15.516 4 14.6876 4Z" fill="white"/>
</g>
</svg>
