<svg width="31" height="30" viewBox="0 0 31 30" fill="none" xmlns="http://www.w3.org/2000/svg">
<g id="duo icons/user">
<path id="Vector" d="M8.54453 18.8576C9.86729 16.4767 12.377 15 15.1007 15H16.2747C18.9984 15 21.508 16.4767 22.8308 18.8576L24.8743 22.5359C25.8 24.2022 24.595 26.25 22.6889 26.25H8.68646C6.78025 26.25 5.57533 24.2022 6.50106 22.5359L8.54453 18.8576Z" fill="#211F30"/>
<path id="Vector_2" opacity="0.3" d="M20.6876 8.75C20.6876 5.98858 18.449 3.75 15.6876 3.75C12.9262 3.75 10.6876 5.98858 10.6876 8.75C10.6876 11.5114 12.9262 13.75 15.6876 13.75C18.449 13.75 20.6876 11.5114 20.6876 8.75Z" fill="#211F30"/>
</g>
</svg>
