<svg width="31" height="30" viewBox="0 0 31 30" fill="none" xmlns="http://www.w3.org/2000/svg">
<g id="duo icons/gym">
<rect id="Vector" opacity="0.3" x="1.625" y="13.614" width="28.1252" height="3.24521" rx="1.62261" fill="#211F30"/>
<path id="Vector_2" fill-rule="evenodd" clip-rule="evenodd" d="M8.69012 6.34608C8.69012 5.74863 9.17448 5.26434 9.77186 5.26434H11.9353C12.5327 5.26434 13.0171 5.74863 13.0171 6.34608V23.6539C13.0171 24.2513 12.5327 24.7356 11.9353 24.7356H9.77186C9.17448 24.7356 8.69012 24.2513 8.69012 23.6539V6.34608ZM4.16035 8.03629C3.56297 8.03629 3.07861 8.52058 3.07861 9.11803V21.0171C3.07861 21.6146 3.56297 22.0989 4.16035 22.0989H6.32382C6.92121 22.0989 7.40556 21.6146 7.40556 21.0171V9.11803C7.40556 8.52058 6.92121 8.03629 6.32382 8.03629H4.16035ZM27.8234 8.03629C28.4207 8.03629 28.9051 8.52058 28.9051 9.11803V21.0171C28.9051 21.6146 28.4207 22.0989 27.8234 22.0989H25.6599C25.0625 22.0989 24.5781 21.6146 24.5781 21.0171V9.11803C24.5781 8.52058 25.0625 8.03629 25.6599 8.03629H27.8234ZM22.2118 5.26434C22.8092 5.26434 23.2936 5.74863 23.2936 6.34608V23.6539C23.2936 24.2513 22.8092 24.7356 22.2118 24.7356H20.0484C19.451 24.7356 18.9666 24.2513 18.9666 23.6539V6.34608C18.9666 5.74863 19.451 5.26434 20.0484 5.26434H22.2118Z" fill="#211F30"/>
</g>
</svg>
