<svg width="40" height="64" viewBox="0 0 40 64" fill="none" xmlns="http://www.w3.org/2000/svg">
<path id="?" opacity="0.2" d="M16.3801 42.1505L16.0139 25.6344H19.2181C20.9881 25.6344 22.5139 25.3477 23.7956 24.7742C25.1384 24.1434 26.1759 23.2545 26.9083 22.1075C27.6407 20.9606 28.0069 19.6416 28.0069 18.1505C28.0069 16.6595 27.6407 15.3692 26.9083 14.2796C26.237 13.19 25.2604 12.3584 23.9787 11.7849C22.697 11.1541 21.1712 10.8387 19.4012 10.8387C16.9599 10.8387 14.7627 11.4982 12.8097 12.8172C10.8566 14.0789 9.30024 15.8853 8.14061 18.2366L-0.00732422 11.5269C1.82367 7.91398 4.4481 5.10394 7.86596 3.09678C11.3449 1.03226 15.4036 0 20.0421 0C23.9482 0 27.3966 0.774194 30.3872 2.32258C33.4389 3.81362 35.7887 5.87813 37.4366 8.51613C39.1455 11.0968 40 14.0502 40 17.3763C40 20.5878 39.2676 23.3979 37.8028 25.8065C36.338 28.2151 34.3239 30.1936 31.7605 31.7419C29.1971 33.2903 26.2064 34.3799 22.7886 35.0107L27.0914 30.3656L26.2675 42.1505H16.3801ZM21.2322 64C19.0961 64 17.2956 63.3118 15.8308 61.9355C14.427 60.5591 13.7252 58.8674 13.7252 56.8602C13.7252 54.853 14.427 53.1613 15.8308 51.785C17.2956 50.4086 19.0961 49.7204 21.2322 49.7204C23.4294 49.7204 25.2299 50.4086 26.6337 51.785C28.0374 53.1613 28.7393 54.853 28.7393 56.8602C28.7393 58.8674 28.0374 60.5591 26.6337 61.9355C25.2299 63.3118 23.4294 64 21.2322 64Z" fill="white"/>
</svg>
