<svg width="31" height="30" viewBox="0 0 31 30" fill="none" xmlns="http://www.w3.org/2000/svg">
<g id="duo icons/date">
<path id="Vector" opacity="0.3" d="M26.6876 27.5H4.18762C3.43762 27.5 2.93762 27 2.93762 26.25V6.25C2.93762 5.5 3.43762 5 4.18762 5H26.6876C27.4376 5 27.9376 5.5 27.9376 6.25V26.25C27.9376 27 27.4376 27.5 26.6876 27.5Z" fill="#211F30"/>
<path id="Vector_2" fill-rule="evenodd" clip-rule="evenodd" d="M6.68762 6.25C6.68762 7 7.18762 7.5 7.93762 7.5C8.68762 7.5 9.18762 7 9.18762 6.25V3.75C9.18762 3 8.68762 2.5 7.93762 2.5C7.18762 2.5 6.68762 3 6.68762 3.75V6.25ZM14.1876 3.75V6.25C14.1876 7 13.6876 7.5 12.9376 7.5C12.1876 7.5 11.6876 7 11.6876 6.25V3.75C11.6876 3 12.1876 2.5 12.9376 2.5C13.6876 2.5 14.1876 3 14.1876 3.75ZM19.1876 3.75V6.25C19.1876 7 18.6876 7.5 17.9376 7.5C17.1876 7.5 16.6876 7 16.6876 6.25V3.75C16.6876 3 17.1876 2.5 17.9376 2.5C18.6876 2.5 19.1876 3 19.1876 3.75ZM24.1876 3.75V6.25C24.1876 7 23.6876 7.5 22.9376 7.5C22.1876 7.5 21.6876 7 21.6876 6.25V3.75C21.6876 3 22.1876 2.5 22.9376 2.5C23.6876 2.5 24.1876 3 24.1876 3.75ZM12.5626 16C12.3126 16.25 11.9376 16.375 11.4376 16.375V16.25H11.0626C10.6876 16.25 10.4376 16.25 10.3126 16.5C10.2791 16.567 10.2456 16.625 10.2145 16.6788C10.1296 16.8259 10.0626 16.942 10.0626 17.125C10.0626 17.25 10.1876 17.5 10.3126 17.625C10.4376 17.75 10.6876 17.875 10.9376 17.875H11.3126H11.8126C12.3126 17.875 12.6876 18 13.0626 18.375C13.4376 18.75 13.5626 19.125 13.5626 19.75C13.5626 20.125 13.5626 20.5 13.3126 20.75C13.0626 21 12.8126 21.25 12.5626 21.375C12.3126 21.5 11.9376 21.625 11.6876 21.625C11.1876 21.625 10.8126 21.5 10.4376 21.125C10.0626 20.75 9.81258 20.25 9.56258 19.625C9.56258 19.5477 9.51484 19.5182 9.44886 19.4775C9.40808 19.4522 9.36034 19.4227 9.31259 19.375C9.18759 19.25 9.06258 19.25 8.93758 19.25C8.68758 19.25 8.43758 19.375 8.31258 19.5C8.18758 19.625 8.06259 19.875 8.06259 20.125C8.06259 20.308 8.12958 20.491 8.21452 20.7231C8.2456 20.808 8.27909 20.8995 8.31258 21C8.43758 21.375 8.68758 21.75 8.93758 22C9.18758 22.25 9.56258 22.5 10.0626 22.75C10.5626 23 11.0626 23.125 11.6876 23.125C12.3126 23.125 12.8126 23 13.3126 22.875C13.8126 22.75 14.3126 22.5 14.5626 22.125C14.6459 22 14.7431 21.875 14.8404 21.75C15.0348 21.5 15.2292 21.25 15.3126 21C15.4376 20.625 15.5626 20.25 15.5626 19.75C15.5626 19.4533 15.4843 19.2348 15.3897 18.9707C15.3648 18.9011 15.3387 18.8283 15.3126 18.75C15.1876 18.375 14.9376 18.125 14.6876 17.875C14.4376 17.625 14.0626 17.375 13.6876 17.125C14.0626 16.875 14.3126 16.5 14.5626 16.125C14.8126 15.75 14.9376 15.375 14.9376 14.875C14.9376 14.5783 14.8593 14.3598 14.7647 14.0957C14.7398 14.0261 14.7137 13.9533 14.6876 13.875C14.5626 13.5 14.3126 13.125 14.0626 13C13.9869 12.9621 13.8997 12.9128 13.8046 12.859C13.5855 12.7351 13.324 12.5871 13.0626 12.5L13.0624 12.4999C12.6874 12.375 12.3125 12.25 11.8126 12.25C11.2788 12.25 10.9274 12.3412 10.5247 12.4456C10.4559 12.4635 10.3856 12.4818 10.3126 12.5C9.81257 12.625 9.43758 12.875 9.18758 13.125C8.93758 13.375 8.68758 13.625 8.56258 13.875C8.43758 14.125 8.31258 14.375 8.31258 14.625C8.31258 14.875 8.43758 15.125 8.56258 15.25L8.5626 15.25C8.68759 15.375 8.81258 15.5 9.06257 15.5C9.31257 15.5 9.43758 15.5 9.56258 15.375C9.61033 15.3272 9.65807 15.2977 9.69885 15.2725C9.76483 15.2318 9.81258 15.2023 9.81258 15.125C9.81258 14.942 9.87957 14.826 9.9645 14.6788C9.99559 14.625 10.0291 14.567 10.0626 14.5C10.1876 14.25 10.3126 14.125 10.4376 14L10.4376 14C10.5626 13.875 10.6876 13.75 10.9376 13.625C11.1876 13.5 11.4376 13.5 11.6876 13.5C12.0626 13.5 12.4376 13.625 12.6876 13.875C12.9376 14.125 13.0626 14.5 13.0626 14.875C13.0626 15.375 12.8126 15.75 12.5626 16ZM19.5626 15.25V21.875C19.5626 22.25 19.6876 22.625 19.9376 22.75C20.1876 22.875 20.4376 23 20.6876 23C21.3126 23 21.6876 22.5 21.6876 21.5V13.125C21.6876 12.75 21.5626 12.375 21.4376 12.25C21.3126 12.125 21.0626 12 20.8126 12H20.8125C20.5625 12 20.3126 12 20.3126 12.125C20.3126 12.25 20.1876 12.5 19.8126 12.875L18.8126 13.875C18.5626 14.125 18.0626 14.5 17.4376 14.75C16.9376 15 16.6876 15.125 16.5626 15.25C16.4376 15.375 16.3126 15.5 16.3126 15.75C16.3126 16 16.4376 16.25 16.5626 16.375C16.6876 16.5 16.8126 16.625 17.0626 16.625C17.4376 16.625 18.3126 16.25 19.5626 15.25Z" fill="#211F30"/>
</g>
</svg>
