<svg width="24" height="25" viewBox="0 0 24 25" fill="none" xmlns="http://www.w3.org/2000/svg">
<g id="duo icons/rotate">
<path id="Vector" opacity="0.3" d="M2.1001 10.7278C3.0001 6.32778 6.70007 3.02778 11.2001 2.72778L8.80008 5.12777L11.1001 7.72778C9.6001 8.02778 8.3001 8.92777 7.6001 10.3278L4.50009 13.1278L2.1001 10.7278ZM19.3001 12.2278L16.4001 14.7278C15.7001 16.2278 14.4001 17.3278 12.7001 17.6278L15.0001 20.2278L12.6001 22.6278C17.1001 22.3278 20.8001 18.9278 21.7001 14.6278L19.3001 12.2278Z" fill="white"/>
<path id="Vector_2" d="M13.8 2.82776C18.2 3.72776 21.5 7.42776 21.8 11.9278L19.4 9.52775L16.8 11.7278C16.5 10.1278 15.5 8.82776 14 8.12776L11.4 5.12776L13.8 2.82776ZM12.3 20.1278L9.69998 17.1278C8.29998 16.4278 7.3 15.1278 7 13.5278L4.39999 15.8278L2 13.4278C2.3 17.9278 5.7 21.6278 10 22.5278L12.3 20.1278Z" fill="white"/>
</g>
</svg>
