<svg width="25" height="24" viewBox="0 0 25 24" fill="none" xmlns="http://www.w3.org/2000/svg">
<g id="duo icons/search">
<path id="Vector" opacity="0.5" d="M22.2838 20.182L17.9312 15.8294C17.5407 15.4389 16.9075 15.4389 16.517 15.8294C16.1265 16.2199 16.1265 16.8531 16.517 17.2436L20.8696 21.5962C21.2601 21.9867 21.8933 21.9867 22.2838 21.5962C22.6743 21.2057 22.6743 20.5725 22.2838 20.182Z" fill="white"/>
<path id="Vector_2" d="M11.1876 19C6.74318 19 3.18762 15.4444 3.18762 11C3.18762 6.55556 6.74318 3 11.1876 3C15.632 3 19.1876 6.55556 19.1876 11C19.1876 15.4444 15.632 19 11.1876 19ZM11.1876 5C7.72095 5 5.18762 7.53333 5.18762 11C5.18762 14.4667 7.72095 17 11.1876 17C14.6543 17 17.1876 14.4667 17.1876 11C17.1876 7.53333 14.6543 5 11.1876 5Z" fill="white"/>
</g>
</svg>
