<svg width="31" height="30" viewBox="0 0 31 30" fill="none" xmlns="http://www.w3.org/2000/svg">
<g id="duo icons/time">
<path id="Vector" opacity="0.3" d="M27.0626 16.125C26.3126 16.125 25.8126 15.625 25.8126 14.875C25.8126 14.125 26.3126 13.625 27.0626 13.625H28.1876C27.5626 7.75 22.9376 3 17.0626 2.5V3.625C17.0626 4.375 16.5626 4.875 15.8126 4.875C15.0626 4.875 14.5626 4.375 14.5626 3.625V2.5C8.68761 3.125 3.93762 7.75 3.43762 13.625H4.56261C5.31261 13.625 5.81261 14.125 5.81261 14.875C5.81261 15.625 5.31261 16.125 4.56261 16.125H3.43762C4.06262 22 8.68761 26.75 14.5626 27.25V26.125C14.5626 25.375 15.0626 24.875 15.8126 24.875C16.5626 24.875 17.0626 25.375 17.0626 26.125V27.25C22.9376 26.625 27.6876 22 28.1876 16.125H27.0626Z" fill="#211F30"/>
<path id="Vector_2" d="M22.0626 13.625H17.9376C17.6876 13.25 17.4376 13 17.0626 12.75V7.375C17.0626 6.625 16.5626 6.125 15.8126 6.125C15.0626 6.125 14.5626 6.625 14.5626 7.375V12.75C14.1876 13 13.9376 13.25 13.6876 13.625H13.3126C12.5626 13.625 12.0626 14.125 12.0626 14.875C12.0626 15.625 12.5626 16.125 13.3126 16.125H13.6876C13.9376 16.5 14.1876 16.75 14.5626 17V17.375C14.5626 18.125 15.0626 18.625 15.8126 18.625C16.5626 18.625 17.0626 18.125 17.0626 17.375V17C17.4376 16.75 17.6876 16.5 17.9376 16.125H22.0626C22.8126 16.125 23.3126 15.625 23.3126 14.875C23.3126 14.125 22.8126 13.625 22.0626 13.625Z" fill="#211F30"/>
</g>
</svg>
